<svg width="474" height="68" fill="none" xmlns="http://www.w3.org/2000/svg"><g filter="url(#a)"><path d="M37.945 49.375a19.846 19.846 0 0 1-3.047 1.367c-1.015.365-2.07.664-3.164.899v2.93c0 .833-.09 1.588-.273 2.265a3.772 3.772 0 0 1-.977 1.68c-.442.468-1.041.833-1.797 1.093-.729.26-1.653.391-2.773.391H8.61c-1.25 0-2.265-.117-3.046-.352-.782-.234-1.394-.573-1.836-1.015-.443-.443-.743-1.003-.899-1.68-.156-.677-.234-1.471-.234-2.383V9.375c0-.911.078-1.706.234-2.383.156-.677.456-1.237.899-1.68.442-.468 1.054-.82 1.836-1.054.78-.235 1.796-.352 3.046-.352h17.422c1.875 0 3.711.156 5.508.469 1.823.313 3.542.82 5.156 1.523a16.885 16.885 0 0 1 4.492 2.735c1.38 1.146 2.566 2.565 3.555 4.258 1.016 1.666 1.797 3.62 2.344 5.859.573 2.24.86 4.818.86 7.734 0 2.5-.157 4.766-.47 6.797-.312 2.032-.742 3.867-1.288 5.508-.547 1.64-1.211 3.099-1.993 4.375a18.316 18.316 0 0 1-2.539 3.32l7.813 10.313c.26.364.39.716.39 1.055 0 .39-.143.729-.43 1.015a3.64 3.64 0 0 1-.859.703l-2.343 1.367a2.297 2.297 0 0 1-.586.235 1.472 1.472 0 0 1-.586.117 1.59 1.59 0 0 1-.86-.273c-.286-.183-.547-.495-.78-.938l-5.47-10.703Zm4.492-22.188c0-2.343-.208-4.505-.624-6.484-.417-1.979-1.055-3.724-1.915-5.234a11.814 11.814 0 0 0-3.32-3.75c-1.354-.99-2.969-1.667-4.844-2.031v36.835c1.875-.416 3.49-1.171 4.844-2.265 1.354-1.12 2.461-2.513 3.32-4.18.86-1.667 1.498-3.58 1.914-5.742.417-2.188.626-4.57.626-7.148ZM28.415 9.102c-.52-.026-1.068-.04-1.64-.04a30.2 30.2 0 0 0-1.407-.039V56.72c.625 0 1.133-.013 1.524-.04.39-.051.703-.156.937-.312.235-.182.39-.43.469-.742.078-.339.117-.807.117-1.406V9.102Zm54.961 14.414v31.68a841.56 841.56 0 0 1 6.953-.977c.885-.13 1.771-.248 2.656-.352.912-.13 1.745-.247 2.5-.351a47.8 47.8 0 0 1 1.954-.235c.546-.052.924-.078 1.132-.078.443 0 .82.091 1.133.274.313.156.469.494.469 1.015v3.594c0 .469-.117.911-.352 1.328-.234.39-.794.586-1.68.586H60.173c-1.224 0-2.227-.117-3.008-.352-.755-.234-1.354-.573-1.797-1.015-.442-.443-.742-1.003-.898-1.68-.157-.677-.235-1.471-.235-2.383V10.703c0-1.484.17-2.67.508-3.555.339-.911.82-1.601 1.446-2.07.624-.495 1.367-.807 2.226-.937a16.91 16.91 0 0 1 2.93-.235h35.312c.886 0 1.446.209 1.68.625.26.39.39.834.39 1.328v2.774c0 .52-.143.872-.43 1.055-.26.156-.611.234-1.054.234-.26 0-.664-.026-1.21-.078-.522-.052-1.134-.117-1.837-.196-.703-.104-1.458-.208-2.265-.312a77.505 77.505 0 0 1-2.422-.352c-1.875-.286-3.92-.612-6.133-.976v9.922h14.531c.547 0 .82.273.82.82v3.906c0 .573-.273.86-.82.86H83.375ZM80.055 7.46l-3.047-.43v49.024l3.047-.39V7.46Zm48.242-3.555c.469 0 .872.065 1.211.196.338.104.638.299.898.585.287.287.547.665.782 1.133.234.47.481 1.042.742 1.72l17.929 47.89c.131.364.222.69.274.976.052.287.078.573.078.86 0 .937-.287 1.627-.859 2.07-.547.443-1.133.664-1.758.664h-22.149c-.677 0-1.25-.078-1.718-.234a5.132 5.132 0 0 1-1.133-.625 3.316 3.316 0 0 1-.742-.743 2.636 2.636 0 0 1-.313-.703l-.43-1.367h-10.976l-.274 1.172c-.078.39-.169.742-.273 1.055a3.61 3.61 0 0 1-.391.78 1.667 1.667 0 0 1-.664.509c-.26.104-.612.156-1.054.156h-4.024c-.833 0-1.25-.325-1.25-.977 0-.234.039-.507.117-.82.104-.338.235-.729.391-1.172l16.328-49.414c.391-1.224.833-2.135 1.328-2.734.495-.6 1.198-.925 2.11-.977h5.82Zm-16.953 47.617h8.437l-4.336-15.273-4.101 15.273Zm17.383-43.086c-.209-.546-.469-.885-.782-1.015-.286-.156-.794-.234-1.523-.234h-1.367l18.476 49.53h1.875c.469 0 .782-.09.938-.273.182-.208.169-.573-.039-1.093L128.727 8.438Zm53.046 23.36c0 3.203.131 5.976.391 8.32.26 2.318.599 4.297 1.016 5.938.442 1.614.95 2.93 1.523 3.945.599.99 1.211 1.77 1.836 2.344.625.547 1.25.924 1.875 1.133a6.823 6.823 0 0 0 1.836.273c.651 0 1.237-.078 1.758-.234.521-.183.989-.378 1.406-.586.417-.235.755-.43 1.016-.586.286-.183.508-.274.664-.274.208 0 .39.117.547.352l1.679 2.656a.927.927 0 0 1 .118.39c0 .131-.053.248-.157.352a2.547 2.547 0 0 0-.273.235c-.807.625-1.836 1.263-3.086 1.914-1.25.65-2.682 1.237-4.297 1.758-1.589.52-3.346.95-5.273 1.289a35.2 35.2 0 0 1-6.094.507c-1.953 0-3.959-.195-6.016-.586a24.572 24.572 0 0 1-5.937-1.874c-1.927-.912-3.75-2.11-5.469-3.594-1.693-1.485-3.177-3.32-4.453-5.508-1.276-2.214-2.292-4.805-3.047-7.773-.729-2.995-1.094-6.459-1.094-10.391 0-3.932.365-7.383 1.094-10.352.755-2.994 1.771-5.586 3.047-7.773 1.276-2.214 2.76-4.063 4.453-5.547 1.719-1.484 3.542-2.67 5.469-3.555a23.582 23.582 0 0 1 5.937-1.914 32.22 32.22 0 0 1 6.016-.586c2.135 0 4.166.17 6.094.508 1.927.339 3.684.768 5.273 1.29 1.615.52 3.047 1.106 4.297 1.757 1.25.651 2.279 1.29 3.086 1.914l.273.274a.372.372 0 0 1 .157.312c0 .104-.04.234-.118.39l-1.679 2.657c-.157.234-.339.351-.547.351-.156 0-.378-.078-.664-.234a8.223 8.223 0 0 0-1.016-.586 6.913 6.913 0 0 0-1.406-.586 5.3 5.3 0 0 0-1.758-.273c-.573 0-1.185.104-1.836.312-.625.182-1.25.56-1.875 1.133-.625.547-1.237 1.328-1.836 2.344-.573.99-1.081 2.305-1.523 3.945-.417 1.615-.756 3.594-1.016 5.938-.26 2.317-.391 5.078-.391 8.28Zm-6.601 0c0 3.229.143 6.028.43 8.398.312 2.37.729 4.414 1.25 6.133.546 1.693 1.171 3.1 1.875 4.219.729 1.12 1.497 2.044 2.304 2.773.834.703 1.68 1.25 2.539 1.64.886.365 1.758.652 2.618.86a839.9 839.9 0 0 0-1.172-.742c-.495-.338-1.042-.833-1.641-1.484-.573-.677-1.159-1.563-1.758-2.657-.573-1.12-1.107-2.539-1.601-4.257-.469-1.72-.86-3.79-1.172-6.211-.287-2.448-.43-5.339-.43-8.672 0-3.334.143-6.211.43-8.633.312-2.448.703-4.531 1.172-6.25.494-1.719 1.028-3.125 1.601-4.219.599-1.12 1.185-2.005 1.758-2.656.599-.677 1.146-1.172 1.641-1.484a42.69 42.69 0 0 1 1.172-.782c-.86.235-1.732.534-2.618.899-.859.364-1.705.911-2.539 1.64-.807.704-1.575 1.615-2.304 2.735-.704 1.12-1.329 2.539-1.875 4.258-.521 1.692-.938 3.724-1.25 6.093-.287 2.37-.43 5.17-.43 8.399Zm36.484-22.188c-1.692.365-3.255.69-4.687.977-.625.13-1.25.247-1.875.351-.599.105-1.172.209-1.719.313-.547.078-1.042.143-1.484.195-.417.052-.73.078-.938.078-.443 0-.82-.078-1.133-.234-.286-.182-.429-.534-.429-1.055V5.86c0-.494.208-.937.625-1.328.416-.416 1.067-.625 1.953-.625h48.476c.886 0 1.537.209 1.953.625.417.39.625.834.625 1.328v4.375c0 .521-.156.873-.468 1.055-.287.156-.651.234-1.094.234-.234 0-.56-.026-.977-.078a85.817 85.817 0 0 1-1.445-.195 77.771 77.771 0 0 0-1.758-.313 56.416 56.416 0 0 1-1.836-.351 327.314 327.314 0 0 1-4.687-.977v45.04c0 .885-.078 1.666-.235 2.343a3.63 3.63 0 0 1-.898 1.68c-.417.443-1.003.781-1.758 1.016-.755.208-1.719.312-2.89.312h-17.422c-1.224 0-2.227-.117-3.008-.352-.755-.234-1.354-.573-1.797-1.015-.417-.443-.703-1.003-.859-1.68-.157-.677-.235-1.471-.235-2.383V9.61Zm25.782-.82-3.047-.664v48.594c.625 0 1.132-.013 1.523-.04.391-.051.703-.156.938-.312.234-.182.39-.43.468-.742.078-.339.118-.807.118-1.406V8.789Zm68.789 52.734c-2.084 0-4.18-.182-6.289-.546a24.436 24.436 0 0 1-6.016-1.875 22.316 22.316 0 0 1-5.391-3.516c-1.666-1.484-3.125-3.32-4.375-5.508-1.224-2.213-2.187-4.818-2.89-7.812-.704-3.021-1.055-6.524-1.055-10.508 0-3.959.351-7.448 1.055-10.469.703-3.02 1.666-5.625 2.89-7.812 1.25-2.214 2.709-4.05 4.375-5.508a21.407 21.407 0 0 1 5.391-3.477 24.434 24.434 0 0 1 6.016-1.875 36.857 36.857 0 0 1 6.289-.547c2.083 0 4.179.183 6.289.547 2.109.365 4.127.99 6.054 1.875a21.407 21.407 0 0 1 5.391 3.477c1.667 1.458 3.112 3.294 4.336 5.508 1.224 2.187 2.187 4.791 2.891 7.812.703 3.02 1.054 6.51 1.054 10.469 0 4.375-.416 8.164-1.25 11.367-.833 3.177-1.979 5.898-3.437 8.164l5.507 7.852c.287.442.43.82.43 1.132 0 .365-.13.677-.39.938-.235.286-.508.52-.821.703l-2.461 1.367a2.453 2.453 0 0 1-.547.235 1.466 1.466 0 0 1-.585.117 1.65 1.65 0 0 1-.899-.274c-.286-.182-.547-.494-.781-.937l-3.516-6.445a20.093 20.093 0 0 1-3.906 2.617 23.342 23.342 0 0 1-4.297 1.68 25.966 25.966 0 0 1-4.492.937c-1.537.208-3.06.312-4.57.312Zm13.711-19.062c.624-.39 1.197-.234 1.718.469l1.992 2.851c.886-1.276 1.615-3.047 2.188-5.312.573-2.292.859-5.196.859-8.711 0-3.255-.247-5.977-.742-8.164-.469-2.188-1.107-3.946-1.914-5.274-.781-1.328-1.68-2.265-2.695-2.812-1.016-.573-2.058-.86-3.125-.86-1.068 0-2.11.287-3.125.86-.99.547-1.888 1.484-2.696 2.812-.807 1.328-1.458 3.086-1.953 5.274-.468 2.187-.703 4.909-.703 8.164s.235 5.976.703 8.164c.495 2.187 1.146 3.945 1.953 5.273.808 1.328 1.706 2.279 2.696 2.852 1.015.547 2.057.82 3.125.82.495 0 .95-.052 1.367-.156l-1.914-3.555c-.182-.338-.248-.65-.195-.937.052-.313.26-.573.625-.782l1.836-.976Zm-13.516-10.703c0-3.255.26-6.068.781-8.438.547-2.37 1.237-4.336 2.07-5.898.834-1.563 1.771-2.748 2.813-3.555 1.068-.833 2.135-1.354 3.203-1.562-1.536.078-3.034.482-4.492 1.21-1.458.73-2.761 1.863-3.906 3.4-1.12 1.536-2.019 3.528-2.696 5.976-.677 2.422-1.015 5.377-1.015 8.867 0 3.49.338 6.458 1.015 8.906.677 2.422 1.576 4.401 2.696 5.938 1.145 1.536 2.448 2.669 3.906 3.398 1.458.73 2.956 1.133 4.492 1.21-1.068-.181-2.135-.69-3.203-1.523-1.042-.833-1.979-2.03-2.813-3.593-.833-1.563-1.523-3.529-2.07-5.899-.521-2.37-.781-5.182-.781-8.437Zm75.156 8.047c0 2.968-.286 5.573-.859 7.812-.573 2.214-1.367 4.128-2.383 5.742-1.016 1.615-2.214 2.943-3.594 3.985a18.278 18.278 0 0 1-4.531 2.5 22.003 22.003 0 0 1-5.156 1.289c-1.797.26-3.62.39-5.469.39-1.771 0-3.542-.117-5.313-.351a22.598 22.598 0 0 1-5-1.172 17.051 17.051 0 0 1-4.375-2.383c-1.354-1.015-2.526-2.33-3.515-3.945-.99-1.615-1.771-3.555-2.344-5.82-.547-2.266-.82-4.948-.82-8.047V9.375c0-.911.078-1.706.234-2.383.156-.677.456-1.237.899-1.68.442-.468 1.054-.82 1.836-1.054.781-.235 1.796-.352 3.046-.352h17.422c1.511 0 2.656.222 3.438.664.807.443 1.367 1.003 1.679 1.68a4.87 4.87 0 0 1 .547 2.11c.026.729.039 1.406.039 2.03v43.79c2.344-.47 4.037-1.55 5.079-3.242 1.041-1.693 1.562-4.206 1.562-7.54V5.742c0-.443.091-.86.273-1.25.209-.39.651-.586 1.329-.586h4.062c.234 0 .469.013.703.04a1.3 1.3 0 0 1 .625.234c.182.104.326.286.43.547.104.234.156.572.156 1.015v34.063ZM364.039 9.688c0-.573-.039-1.03-.117-1.368-.078-.338-.234-.586-.469-.742-.234-.182-.547-.286-.937-.312a11.986 11.986 0 0 0-1.524-.079V54.61h3.047V9.687Zm24.727-.313c0-.911.078-1.706.234-2.383.156-.677.456-1.237.898-1.68.443-.468 1.055-.82 1.836-1.054.782-.235 1.797-.352 3.047-.352h17.422c1.511 0 2.656.222 3.438.664.807.443 1.367 1.003 1.679 1.68a4.87 4.87 0 0 1 .547 2.11c.026.729.039 1.406.039 2.03v43.282c0 .599-.052 1.263-.156 1.992a5.168 5.168 0 0 1-.781 2.07c-.417.625-1.055 1.16-1.914 1.602-.86.443-2.045.664-3.555.664h-16.719c-1.25 0-2.265-.117-3.047-.352-.781-.234-1.393-.573-1.836-1.015-.442-.443-.742-1.003-.898-1.68-.156-.677-.234-1.471-.234-2.383V9.375Zm25.82.313c0-.573-.039-1.03-.117-1.368-.078-.338-.235-.586-.469-.742-.234-.182-.547-.286-.938-.312-.39-.052-.898-.079-1.523-.079V56.72c.625 0 1.133-.013 1.523-.04.391-.051.704-.156.938-.312.234-.182.391-.43.469-.742.078-.339.117-.807.117-1.406V9.687Zm11.133-3.829c0-.494.156-.937.469-1.328.312-.416.911-.625 1.796-.625h39.961c.99 0 1.745.156 2.266.469.547.313.82.911.82 1.797 0 .52-.104 1.12-.312 1.797-.209.65-.43 1.276-.664 1.875l-16.953 44.14c2.76-.442 5.26-.833 7.5-1.172.963-.156 1.914-.299 2.851-.43a81.07 81.07 0 0 1 2.578-.39c.808-.13 1.485-.221 2.031-.273.573-.078.951-.117 1.133-.117.443 0 .834.09 1.172.273.339.156.508.495.508 1.016v5.195c0 .469-.156.911-.469 1.328-.312.39-.911.586-1.797.586H426.93c-1.276 0-2.136-.234-2.578-.703a2.536 2.536 0 0 1-.625-1.68c0-.755.13-1.51.39-2.265.261-.782.612-1.745 1.055-2.891l16.406-42.54c-2.344.47-4.492.873-6.445 1.212-.834.156-1.667.3-2.5.43-.834.13-1.602.26-2.305.39-.703.104-1.315.195-1.836.274-.521.052-.885.078-1.094.078-.442 0-.833-.078-1.171-.235-.339-.156-.508-.495-.508-1.015V5.859Zm40.937 3.36c.183-.495.274-.873.274-1.133 0-.287-.091-.508-.274-.664-.156-.156-.455-.234-.898-.234h-1.641L445.68 55.156l3.476-.508 17.5-45.43Z" fill="url(#b)"/><path d="m37.945 49.375 1.786-.913-.942-1.845-1.814 1.002.97 1.756Zm-3.047 1.367-.662-1.893-.008.003-.007.002.677 1.888Zm-3.164.899-.42-1.962-1.585.34v1.622h2.005Zm-.273 5.195 1.931.54.003-.009.003-.01-1.937-.521Zm-.977 1.68-1.418-1.419-.02.02-.02.021 1.458 1.378Zm-1.797 1.093-.653-1.896-.01.004-.011.003.674 1.89Zm-24.96-.976L2.308 60.05l1.419-1.418Zm0-53.32L5.145 6.73l.02-.02.02-.021-1.458-1.378Zm27.812-.938-.344 1.976.005.001.34-1.977Zm5.156 1.523-.8 1.84.017.007.018.008.765-1.855Zm4.492 2.735-1.295 1.531.007.006.007.006 1.282-1.543Zm3.555 4.258-1.731 1.012.009.016.01.015 1.712-1.043Zm2.344 5.859-1.949.476.003.01.003.011 1.943-.497Zm-2.89 24.414-1.711-1.047-.007.01 1.717 1.037Zm-2.54 3.32-1.437-1.398-1.203 1.235 1.041 1.375 1.6-1.212Zm7.813 10.313L51.1 55.63l-.016-.023-.017-.022-1.6 1.21Zm-.04 2.07-1.418-1.418-.033.034-.033.035 1.485 1.35Zm-.859.703-1.01-1.732 1.01 1.732Zm-2.343 1.367.995 1.742.008-.004.007-.005-1.01-1.733Zm-.586.235-.487-1.946-.156.039-.148.063.79 1.844Zm-2.227-1.094-1.786.913.007.013.006.013 1.773-.939Zm-1.602-39.375-1.962.413 1.962-.413ZM31.735 9.688l.383-1.97-2.388-.464v2.434h2.005Zm0 36.835h-2.006v2.501l2.441-.542-.435-1.959Zm4.844-2.265 1.26 1.56.01-.007.008-.007-1.278-1.546Zm3.32-4.18-1.782-.92 1.782.92Zm1.914-5.742 1.97.38.001-.005-1.97-.375ZM28.415 9.102h2.006V7.193l-1.906-.095-.1 2.004Zm-1.64-.04-.096 2.004.048.002h.047V9.063Zm-1.407-.039V7.018h-2.006v2.005h2.006Zm0 47.696h-2.006v2.006h2.006v-2.006Zm1.524-.04.133 2.002.066-.004.066-.009-.265-1.988Zm.937-.312 1.113 1.67.06-.041.059-.046-1.232-1.583Zm.469-.742 1.946.486.004-.017.004-.018-1.954-.451Zm8.678-8.006c-.893.494-1.806.903-2.74 1.23l1.326 3.787a21.853 21.853 0 0 0 3.355-1.505l-1.94-3.512Zm-2.754 1.235a22.63 22.63 0 0 1-2.907.825l.84 3.923a26.625 26.625 0 0 0 3.422-.972l-1.355-3.776Zm-4.492 2.787v2.93h4.011v-2.93h-4.012Zm0 2.93c0 .689-.076 1.265-.205 1.744l3.874 1.042c.236-.875.342-1.81.342-2.787h-4.012Zm-.2 1.724a1.768 1.768 0 0 1-.463.802l2.837 2.837a5.777 5.777 0 0 0 1.49-2.557l-3.864-1.082Zm-.503.843c-.173.184-.471.395-.992.575l1.307 3.793c.99-.342 1.89-.86 2.602-1.613l-2.917-2.755Zm-1.013.582c-.44.157-1.116.274-2.099.274v4.012c1.256 0 2.43-.144 3.448-.508l-1.35-3.778Zm-2.099.274H8.61v4.012h17.305v-4.012Zm-17.305 0c-1.147 0-1.947-.11-2.47-.267L4.986 61.57c1.04.312 2.27.436 3.623.436v-4.012Zm-2.47-.267c-.557-.167-.846-.365-.994-.513l-2.837 2.837c.738.738 1.672 1.217 2.678 1.519l1.153-3.843Zm-.994-.513c-.148-.148-.281-.36-.362-.712l-3.91.902c.232 1.002.698 1.91 1.435 2.647l2.837-2.837Zm-.362-.712c-.114-.492-.183-1.128-.183-1.932H.588c0 1.02.087 1.972.286 2.834l3.909-.902ZM4.6 54.57V9.375H.588V54.57H4.6Zm0-45.195c0-.804.07-1.44.183-1.932l-3.91-.902C.676 7.404.589 8.356.589 9.375H4.6Zm.183-1.932c.08-.352.214-.564.362-.712L2.308 3.894C1.571 4.631 1.105 5.54.874 6.541l3.909.902Zm.402-.753c.145-.154.421-.351.954-.51L4.986 2.336c-1.03.309-1.978.815-2.718 1.598L5.185 6.69Zm.954-.51c.523-.158 1.323-.268 2.47-.268V1.9c-1.353 0-2.583.125-3.623.437L6.14 6.179Zm2.47-.268h17.422V1.9H8.61v4.012Zm17.422 0c1.763 0 3.484.147 5.164.44l.688-3.953A34.095 34.095 0 0 0 26.03 1.9v4.012Zm5.17.44c1.671.287 3.234.75 4.693 1.386l1.602-3.679a24.304 24.304 0 0 0-5.618-1.661L31.2 6.352Zm4.73 1.4c1.447.598 2.766 1.4 3.96 2.412l2.592-3.062a18.89 18.89 0 0 0-5.022-3.058l-1.53 3.709Zm3.975 2.424c1.184.983 2.222 2.217 3.105 3.727l3.463-2.025c-1.097-1.876-2.43-3.48-4.005-4.789l-2.563 3.087Zm3.123 3.758c.891 1.463 1.602 3.217 2.108 5.292l3.898-.952c-.588-2.404-1.44-4.556-2.58-6.427l-3.426 2.087Zm2.114 5.313c.522 2.041.796 4.447.796 7.237h4.012c0-3.042-.298-5.793-.922-8.231l-3.886.994Zm.796 7.237c0 2.42-.15 4.58-.445 6.492l3.965.61c.331-2.15.492-4.52.492-7.102H45.94Zm-.445 6.492c-.298 1.94-.704 3.663-1.21 5.179l3.806 1.268c.589-1.765 1.042-3.714 1.37-5.837l-3.966-.61Zm-1.21 5.179c-.505 1.518-1.109 2.834-1.8 3.962l3.422 2.094c.872-1.424 1.597-3.024 2.184-4.788l-3.806-1.268Zm-1.806 3.972a16.316 16.316 0 0 1-2.26 2.959l2.876 2.797a20.322 20.322 0 0 0 2.818-3.682l-3.434-2.074Zm-2.42 5.569 7.812 10.312 3.198-2.422-7.813-10.313-3.198 2.423Zm7.779 10.267c.046.065.051.087.044.068a.538.538 0 0 1-.028-.18h4.012c0-.873-.338-1.624-.764-2.22l-3.264 2.332Zm.016-.111a.62.62 0 0 1 .158-.403l2.837 2.837a3.393 3.393 0 0 0 1.017-2.434h-4.012Zm.092-.334a1.635 1.635 0 0 1-.385.32l2.021 3.465c.5-.292.945-.66 1.333-1.086l-2.969-2.7Zm-.385.32-2.344 1.367 2.021 3.465 2.344-1.367-2.021-3.465Zm-2.329 1.358a.296.296 0 0 1-.077.03l.973 3.892c.383-.096.75-.242 1.095-.439l-1.99-3.483Zm-.38.132a.537.537 0 0 1 .204-.045v4.012c.466 0 .931-.089 1.376-.28l-1.58-3.687Zm.204-.045c.073 0 .135.012.178.026.042.014.055.024.04.014l-2.155 3.385a3.59 3.59 0 0 0 1.937.587v-4.012Zm.217.04c.063.04.077.065.054.037a1.331 1.331 0 0 1-.14-.22l-3.545 1.877c.325.614.79 1.254 1.477 1.69l2.154-3.384Zm-.072-.157-5.469-10.704-3.572 1.826 5.469 10.703 3.572-1.825Zm-.757-31.978c0-2.462-.218-4.764-.668-6.898l-3.925.826c.384 1.824.582 3.845.582 6.072h4.011Zm-.668-6.898c-.452-2.15-1.156-4.096-2.133-5.813l-3.487 1.984c.742 1.303 1.314 2.847 1.695 4.655l3.925-.826Zm-2.133-5.813a13.822 13.822 0 0 0-3.88-4.378l-2.367 3.24a9.812 9.812 0 0 1 2.76 3.122l3.487-1.984Zm-3.88-4.378c-1.623-1.186-3.52-1.967-5.645-2.38l-.765 3.937c1.625.317 2.957.89 4.043 1.682l2.367-3.239Zm-8.034-.412v36.836h4.012V9.687h-4.012Zm2.441 38.795c2.146-.477 4.05-1.356 5.67-2.664l-2.521-3.12c-1.09.88-2.414 1.51-4.019 1.867l.87 3.917Zm5.687-2.678c1.577-1.304 2.85-2.916 3.825-4.807l-3.565-1.838c-.744 1.442-1.684 2.617-2.816 3.553l2.556 3.092Zm3.825-4.807c.961-1.863 1.654-3.964 2.101-6.281l-3.94-.76c-.386 2.006-.968 3.733-1.726 5.203l3.565 1.838Zm2.102-6.286c.444-2.328.66-4.839.66-7.523h-4.011c0 2.47-.2 4.726-.59 6.773l3.941.75ZM28.514 7.098a34.907 34.907 0 0 0-1.74-.041v4.011c.542 0 1.055.013 1.54.037l.2-4.007Zm-1.645-.04a32.155 32.155 0 0 0-1.502-.04v4.011c.35 0 .784.012 1.311.037l.19-4.007ZM23.36 9.024V56.72h4.012V9.023h-4.012Zm2.006 49.702c.647 0 1.204-.014 1.657-.044l-.267-4.003a21.92 21.92 0 0 1-1.39.035v4.012Zm1.789-.057c.58-.077 1.215-.252 1.785-.632l-2.226-3.338c.054-.036.084-.043.069-.038a.918.918 0 0 1-.159.031l.53 3.977Zm1.904-.718a3.315 3.315 0 0 0 1.183-1.839l-3.892-.972a.589.589 0 0 1 .074-.165.755.755 0 0 1 .172-.19l2.463 3.166Zm1.191-1.874c.128-.555.169-1.199.169-1.857h-4.012c0 .54-.038.833-.066.955l3.91.902Zm.169-1.857V9.102h-4.012v45.117h4.012Zm52.955-30.703V21.51h-2.006v2.006h2.006Zm0 31.68h-2.006v2.316l2.293-.331-.287-1.986Zm6.953-.977.27 1.987.011-.001.011-.002-.292-1.984Zm2.656-.352.235 1.992.024-.003.025-.003-.284-1.986Zm6.72-.39-1.012 1.732.056.033.058.029.897-1.794Zm.116 5.937 1.72 1.032.015-.024.014-.024-1.749-.984Zm-42.656.234-.595 1.916.01.003.009.003.576-1.922Zm-1.797-1.015L53.95 60.05l1.418-1.418Zm-.625-51.485 1.874.717.003-.01.004-.008-1.88-.699Zm1.446-2.07 1.203 1.605.021-.016.02-.016-1.245-1.573Zm2.226-.937.3 1.983.025-.004.024-.004-.349-1.975Zm39.922.39-1.748.984.037.066.042.063 1.669-1.113Zm-.04 5.157 1.033 1.72.023-.014.022-.014-1.077-1.693Zm-2.265.156-.2 1.996h.01l.19-1.996Zm-1.836-.196-.294 1.985.037.005.036.004.221-1.994Zm-4.687-.664.32-1.98-.009-.001L89.811 7l-.303 1.983Zm-6.133-.976.326-1.98-2.332-.383v2.363h2.006Zm0 9.922h-2.006v2.006h2.006V17.93Zm-3.32-10.47h2.006V5.719l-1.726-.243-.28 1.986Zm-3.047-.429.28-1.986-2.286-.322V7.03h2.006Zm0 49.024h-2.006v2.28l2.26-.29-.254-1.99Zm3.047-.39.255 1.989 1.75-.225v-1.765h-2.005Zm1.314-32.15v31.68h4.012v-31.68h-4.012Zm2.293 33.666c2.521-.364 4.833-.689 6.936-.975l-.54-3.975c-2.116.287-4.439.614-6.97.979l.574 3.97Zm6.958-.978a90.707 90.707 0 0 1 2.599-.344l-.469-3.984c-.905.106-1.81.226-2.714.36l.584 3.968Zm2.648-.35c.909-.13 1.739-.247 2.49-.35l-.548-3.974c-.759.104-1.595.222-2.51.352l.568 3.972Zm2.49-.35a45.608 45.608 0 0 1 1.87-.225l-.38-3.994c-.584.056-1.264.138-2.038.245l.549 3.974Zm1.87-.225c.553-.053.842-.069.942-.069v-4.012c-.316 0-.782.036-1.323.087l.38 3.994Zm.942-.069c.085 0 .13.009.145.012.013.004.002.002-.023-.012l2.022-3.465c-.681-.397-1.425-.547-2.144-.547v4.012Zm.236.062a1.257 1.257 0 0 1-.573-.583c-.081-.177-.067-.274-.067-.196h4.012c0-.863-.279-2.16-1.578-2.81l-1.794 3.589Zm-.64-.779v3.594h4.012v-3.594h-4.012Zm0 3.594a.664.664 0 0 1-.094.345l3.497 1.967a4.68 4.68 0 0 0 .609-2.312h-4.012Zm-.066.296c.089-.148.197-.255.293-.326a.685.685 0 0 1 .17-.096c.013-.005-.012.005-.088.016-.075.01-.185.018-.334.018v4.012c.953 0 2.565-.17 3.399-1.56l-3.44-2.064Zm.04-.388H60.173v4.012H98.14v-4.012Zm-37.968 0c-1.116 0-1.906-.11-2.431-.267l-1.153 3.843c1.036.31 2.252.436 3.584.436v-4.012Zm-2.413-.261c-.525-.163-.814-.359-.973-.519l-2.837 2.837c.725.726 1.634 1.207 2.62 1.513l1.19-3.831Zm-.973-.519c-.149-.148-.281-.36-.363-.712l-3.909.902c.231 1.002.698 1.91 1.435 2.647l2.837-2.837Zm-.363-.712c-.113-.492-.183-1.128-.183-1.932h-4.012c0 1.02.087 1.972.286 2.834l3.91-.902Zm-.183-1.932V10.703h-4.012V54.57h4.012Zm0-43.867c0-1.362.16-2.273.376-2.838l-3.747-1.433c-.462 1.206-.64 2.665-.64 4.271h4.011Zm.383-2.856c.237-.639.518-.977.768-1.164l-2.407-3.21c-1 .75-1.682 1.793-2.122 2.977l3.76 1.397Zm.81-1.196c.326-.259.735-.444 1.282-.527l-.601-3.967c-1.173.178-2.248.618-3.172 1.348l2.49 3.146Zm1.33-.535c.751-.133 1.609-.204 2.58-.204V1.9c-1.163 0-2.258.085-3.278.265l.698 3.951Zm2.58-.204h35.313V1.9H61.344v4.012Zm35.313 0c.145 0 .249.009.317.019.07.01.087.019.068.011a.71.71 0 0 1-.182-.108 1.084 1.084 0 0 1-.271-.32l3.496-1.966c-.812-1.444-2.43-1.648-3.428-1.648v4.012Zm.01-.268c.03.043.055.094.055.215h4.011c0-.868-.235-1.702-.727-2.44l-3.338 2.225Zm.055.215v2.774h4.011V5.859h-4.011Zm0 2.774c0 .091-.015.033.04-.103.067-.162.21-.377.459-.535l2.154 3.385c1.13-.72 1.358-1.928 1.358-2.747h-4.011Zm.544-.666c.085-.05.141-.063.138-.062l-.042.006a1.226 1.226 0 0 1-.119.005v4.012c.65 0 1.403-.11 2.087-.52l-2.064-3.44Zm-.023-.051c-.16 0-.484-.018-1.02-.07l-.38 3.995c.556.053 1.039.087 1.4.087V7.916Zm-1.011-.068c-.512-.051-1.116-.116-1.814-.193l-.443 3.987c.708.079 1.328.145 1.858.198l.399-3.992Zm-1.742-.184c-.717-.106-1.485-.212-2.303-.317l-.513 3.978c.797.103 1.54.206 2.228.308l.588-3.969Zm-2.303-.317a75.424 75.424 0 0 1-2.359-.343l-.639 3.96c.828.134 1.657.255 2.485.361l.513-3.978ZM89.811 7c-1.866-.285-3.903-.609-6.11-.972l-.652 3.958c2.22.366 4.272.692 6.156.98l.606-3.966Zm-8.442 1.007v9.922h4.012V8.008h-4.012Zm2.006 11.928h14.531v-4.012H83.375v4.012Zm14.531 0c-.035 0-.43-.01-.803-.383-.372-.372-.382-.767-.382-.803h4.011c0-.583-.147-1.388-.792-2.034-.646-.645-1.451-.792-2.034-.792v4.012Zm-1.185-1.186v3.906h4.011V18.75h-4.011Zm0 3.906s-.002-.372.35-.74c.368-.386.775-.406.835-.406v4.011c.607 0 1.425-.163 2.066-.835.625-.655.76-1.457.76-2.03h-4.011Zm1.185-1.146H83.375v4.011h14.531V21.51ZM80.335 5.475l-3.047-.43-.56 3.972 3.047.43.56-3.972ZM75.002 7.03v49.024h4.012V7.03h-4.012Zm2.26 51.013 3.048-.39-.51-3.98-3.047.391.51 3.98Zm4.799-2.38V7.461h-4.012v48.203h4.012Zm47.447-51.562-.72 1.872.064.024.066.02.59-1.916Zm.898.585-1.484 1.35.032.035.034.034 1.418-1.418Zm1.524 2.852 1.878-.703-.003-.009-.003-.008-1.872.72Zm17.929 47.89 1.889-.674-.005-.014-.005-.015-1.879.704Zm-.507 3.907-1.227-1.587-.018.014-.018.014 1.263 1.559Zm-25.625.43-.764 1.854.064.027.065.022.635-1.903Zm-1.875-1.368-1.72 1.032.036.06.04.059 1.644-1.15Zm-.313-.703 1.946-.486-.014-.058-.018-.057-1.914.601Zm-.43-1.367 1.914-.601-.441-1.405h-1.473v2.006Zm-10.976 0v-2.006h-1.592l-.362 1.55 1.954.456Zm-.274 1.172-1.953-.456-.007.031-.007.032 1.967.393Zm-.273 1.055 1.885.685.009-.025.009-.026-1.903-.634Zm-.391.78 1.605 1.204.033-.044.031-.046-1.669-1.113Zm-.664.509.745 1.862.043-.017.042-.02-.83-1.825Zm-6.211-1.64-1.917-.59-.016.05-.013.053 1.946.486Zm.391-1.173 1.891.668.007-.02.007-.018-1.905-.63Zm16.328-49.414 1.905.63.003-.01.003-.01-1.911-.61Zm3.438-3.71V1.9h-.058l-.057.004.115 2.002Zm-11.133 47.616-1.938-.52-.678 2.526h2.616v-2.006Zm8.437 0v2.006h2.655l-.725-2.553-1.93.547Zm-4.336-15.273 1.93-.548-1.983-6.986-1.884 7.014 1.937.52Zm13.282-27.813 1.878-.703-.004-.01-1.874.713Zm-.782-1.015-.96 1.76.092.051.097.04.771-1.851Zm-2.89-.234V5.181h-2.889l1.009 2.707 1.88-.702Zm18.476 49.53-1.879.702.487 1.305h1.392v-2.006Zm2.813-.273-1.51-1.32-.007.007-.006.008 1.523 1.305Zm-.039-1.093-1.879.703.008.021.008.02 1.863-.744Zm-18.008-49.44c.291 0 .438.042.491.062l1.44-3.745c-.625-.24-1.285-.329-1.931-.329v4.012Zm.621.107a.123.123 0 0 1-.027-.013c-.002 0-.001 0 .004.004a.366.366 0 0 1 .027.027l2.968-2.699a4.004 4.004 0 0 0-1.792-1.154l-1.18 3.835Zm.07.087c.097.097.241.282.405.611l3.589-1.794c-.304-.608-.681-1.178-1.157-1.654l-2.837 2.837Zm.405.611c.197.394.419.904.664 1.542l3.745-1.44a22.166 22.166 0 0 0-.82-1.896l-3.589 1.794Zm.658 1.525 17.93 47.891 3.757-1.407-17.93-47.89-3.757 1.406Zm17.919 47.862c.105.293.162.51.189.661l3.947-.718a8.18 8.18 0 0 0-.358-1.292l-3.778 1.35Zm.189.661c.031.17.046.337.046.5h4.012c0-.408-.037-.815-.111-1.218l-3.947.718Zm.046.5c0 .27-.042.404-.062.452-.013.034-.017.03-.018.032l2.453 3.174c1.203-.93 1.639-2.298 1.639-3.657h-4.012Zm-.116.512c-.237.192-.387.217-.495.217v4.012c1.142 0 2.163-.418 3.02-1.111l-2.525-3.118Zm-.495.217h-22.149v4.012h22.149v-4.012Zm-22.149 0c-.535 0-.88-.063-1.084-.131l-1.269 3.806c.734.244 1.535.337 2.353.337v-4.012Zm-.955-.083a3.175 3.175 0 0 1-.693-.375l-2.407 3.21a7.146 7.146 0 0 0 1.573.874l1.527-3.71Zm-.693-.375a1.36 1.36 0 0 1-.302-.288l-3.287 2.3c.328.47.737.864 1.182 1.197l2.407-3.21Zm-.225-.17a1.515 1.515 0 0 1-.083-.153c-.014-.031-.011-.032-.004-.004l-3.892.973c.115.461.319.883.539 1.248l3.44-2.064Zm-.119-.272-.43-1.367-3.827 1.203.429 1.367 3.828-1.203Zm-2.344-2.772h-10.976v4.012h10.976v-4.012Zm-12.93 1.55-.273 1.172 3.907.912.273-1.172-3.907-.912Zm-.287 1.235a6.848 6.848 0 0 1-.209.813l3.806 1.269c.135-.406.246-.84.337-1.296l-3.934-.786Zm-.191.762a1.63 1.63 0 0 1-.175.354l3.338 2.226c.252-.378.453-.784.607-1.209l-3.77-1.37Zm-.11.263a.542.542 0 0 1 .103-.106c.024-.019.03-.019.007-.008l1.66 3.652a3.667 3.667 0 0 0 1.439-1.13l-3.209-2.408Zm.195-.15c.048-.02.052-.014-.008-.005a2.127 2.127 0 0 1-.301.017v4.012c.567 0 1.205-.062 1.799-.3l-1.49-3.725Zm-.309.012h-4.024v4.012h4.024v-4.012Zm-4.024 0c-.21 0 .001-.05.298.181.164.128.295.3.375.489a.951.951 0 0 1 .083.36h-4.012c0 .784.277 1.682 1.084 2.313.713.557 1.549.669 2.172.669v-4.012Zm.756 1.03c0-.023.005-.126.057-.334l-3.892-.973c-.104.416-.177.86-.177 1.306h4.012Zm.029-.231c.094-.306.215-.67.364-1.094l-3.783-1.335c-.162.46-.302.878-.416 1.25l3.835 1.179Zm.378-1.132 16.328-49.414-3.81-1.26-16.328 49.415 3.81 1.259ZM120.95 8.227c.357-1.119.704-1.752.964-2.067l-3.093-2.555c-.73.884-1.269 2.073-1.693 3.402l3.822 1.22Zm.964-2.067c.076-.092.217-.225.677-.251l-.229-4.005c-1.362.077-2.628.596-3.541 1.701l3.093 2.555Zm.563-.248h5.82V1.9h-5.82v4.012ZM111.344 53.53h8.437v-4.012h-8.437v4.012Zm10.367-2.553-4.336-15.274-3.859 1.096 4.336 15.273 3.859-1.095Zm-8.203-15.246-4.102 15.273 3.875 1.04 4.102-15.273-3.875-1.04Zm17.093-28.007c-.27-.71-.798-1.7-1.884-2.153l-1.543 3.703a.962.962 0 0 1-.389-.277c-.024-.03.009.002.067.156l3.749-1.429Zm-1.695-2.062c-.771-.42-1.738-.48-2.484-.48v4.012c.301 0 .502.017.623.036.058.009.081.016.076.014-.002 0-.055-.016-.136-.06l1.921-3.522Zm-2.484-.48h-1.367v4.012h1.367V5.182Zm-3.247 2.708 18.477 49.53 3.759-1.401-18.477-49.532-3.759 1.403Zm20.356 50.836h1.875v-4.012h-1.875v4.012Zm1.875 0c.553 0 1.687-.072 2.461-.974l-3.046-2.611c.25-.293.521-.39.61-.415.087-.026.095-.012-.025-.012v4.012Zm2.447-.959c.523-.598.641-1.296.622-1.822-.018-.503-.159-.965-.308-1.337l-3.725 1.49c.06.148.029.128.024-.01a1.423 1.423 0 0 1 .368-.963l3.019 2.642Zm.33-3.118L130.605 7.734l-3.757 1.407 17.578 46.914 3.757-1.407Zm33.981-14.53-1.994.22.001.003 1.993-.224Zm1.016 5.937-1.944.493.004.019.005.018 1.935-.53ZM184.703 50l-1.747.986.015.026.016.027L184.703 50Zm1.836 2.344-1.355 1.478.017.016.017.015 1.321-1.51Zm1.875 1.133-.634 1.903.046.015.047.013.541-1.931Zm3.594.039.576 1.92.044-.012.042-.015-.662-1.893Zm1.406-.586.897 1.794.044-.022.042-.024-.983-1.748Zm1.016-.586 1.032 1.72.022-.014.023-.014-1.077-1.692Zm1.211.078 1.695-1.072-.013-.02-.013-.02-1.669 1.112Zm1.679 2.656 1.794-.897-.045-.09-.053-.085-1.696 1.072Zm-.039.742 1.204 1.605.114-.085.101-.101-1.419-1.419Zm-.273.235 1.228 1.586.1-.078.09-.09-1.418-1.418Zm-7.383 3.672-.616-1.91-.009.004.625 1.906Zm-17.383 1.21.374-1.97-.01-.002-.009-.002-.355 1.974Zm-5.937-1.874-.858 1.813.01.005.01.004.838-1.822Zm-5.469-3.594-1.323 1.508.006.005.006.005 1.311-1.518Zm-4.453-5.508-1.738 1.002.005.009 1.733-1.011Zm-3.047-7.773-1.949.474.002.01.003.01 1.944-.495Zm0-20.743-1.945-.49-.003.012 1.948.478Zm3.047-7.773 1.732 1.01.006-.008-1.738-1.002Zm4.453-5.547-1.311-1.518-.006.005-.006.005 1.323 1.508Zm5.469-3.555.837 1.823.01-.005.01-.004-.857-1.814Zm5.937-1.914.355 1.975.009-.002.01-.002-.374-1.97Zm17.383 1.211L189 5.773l.009.003.616-1.909Zm7.383 3.672 1.418-1.418-.09-.09-.1-.078-1.228 1.586Zm.273.274-1.418 1.418.101.1.114.086 1.203-1.604Zm.039.703 1.696 1.072.053-.085.045-.09-1.794-.897Zm-1.679 2.656 1.669 1.112.013-.02.013-.02-1.695-1.072Zm-1.211.117-1.151 1.643.092.064.098.054.961-1.76Zm-1.016-.586-.983 1.748.042.024.044.022.897-1.794Zm-1.406-.586-.663 1.893.043.015.043.014.577-1.922Zm-3.594.04.562 1.925.025-.007.024-.008-.611-1.91Zm-1.875 1.132 1.321 1.51.017-.016.017-.015-1.355-1.479Zm-1.836 2.344-1.728-1.02-.004.008-.004.007 1.736 1.005Zm-1.523 3.945-1.937-.523-.003.011-.003.01 1.943.502Zm-1.016 5.938 1.993.224.001-.003-1.994-.221Zm-6.562 16.68-1.992.24.001.01.002.012 1.989-.263Zm1.25 6.132-1.92.582.005.017.006.018 1.909-.617Zm1.875 4.219-1.699 1.067.009.014.009.013 1.681-1.094Zm2.304 2.773-1.344 1.489.025.023.026.021 1.293-1.533Zm2.539 1.64-.83 1.827.033.015.034.014.763-1.855Zm2.618.86-.473 1.95 1.549-3.642-1.076 1.692Zm-1.172-.742-1.133 1.656.03.02.031.02 1.072-1.696Zm-1.641-1.484-1.531 1.295.027.032.028.03 1.476-1.357Zm-1.758-2.657-1.786.914.013.025.014.025 1.759-.964Zm-1.601-4.257-1.936.528.004.013.004.014 1.928-.555Zm-1.172-6.211-1.993.233.002.012.001.011 1.99-.256Zm0-17.305-1.99-.254-.001.01-.001.008 1.992.236Zm1.172-6.25-1.928-.555-.004.014-.004.013 1.936.528Zm1.601-4.219-1.769-.946-.004.008-.004.008 1.777.93Zm1.758-2.656-1.502-1.329-.004.004 1.506 1.325Zm1.641-1.484 1.071 1.696.031-.02.03-.02-1.132-1.656Zm1.172-.782 1.076 1.693-1.604-3.628.528 1.935Zm-2.618.899-.763-1.855-.01.004-.01.004.783 1.847Zm-2.539 1.64 1.318 1.513.003-.003-1.321-1.51Zm-2.304 2.735-1.681-1.095-.009.014-.009.014 1.699 1.067Zm-1.875 4.258-1.912-.608-.003.009-.003.009 1.918.59Zm-1.25 6.093-1.989-.262-.002.01-.001.012 1.992.24Zm4.166 8.399c0 3.253.132 6.104.402 8.542l3.988-.443c-.25-2.25-.379-4.946-.379-8.1h-4.011Zm.403 8.544c.267 2.377.619 4.452 1.065 6.207l3.888-.987c-.388-1.526-.713-3.41-.967-5.668l-3.986.448Zm1.074 6.244c.469 1.71 1.031 3.194 1.711 4.4l3.494-1.97c-.465-.825-.919-1.972-1.336-3.49l-3.869 1.06Zm1.742 4.454c.664 1.097 1.391 2.044 2.197 2.783l2.71-2.957c-.443-.407-.941-1.022-1.475-1.904l-3.432 2.078Zm2.231 2.814c.775.679 1.627 1.215 2.562 1.526l1.268-3.805c-.315-.106-.713-.324-1.188-.74l-2.642 3.02Zm2.655 1.555a8.827 8.827 0 0 0 2.377.348v-4.012c-.361 0-.789-.057-1.295-.199l-1.082 3.863Zm2.377.348c.809 0 1.594-.097 2.334-.32l-1.153-3.842c-.301.09-.688.15-1.181.15v4.012Zm2.42-.347a14.05 14.05 0 0 0 1.641-.685l-1.794-3.588c-.328.164-.717.327-1.172.486l1.325 3.787Zm1.727-.731c.425-.239.782-.444 1.065-.614l-2.064-3.44c-.238.142-.559.328-.967.557l1.966 3.497Zm1.11-.642c.081-.052.1-.056.067-.043a.95.95 0 0 1-.139.044 1.456 1.456 0 0 1-.341.04v-4.013c-.781 0-1.431.39-1.741.587l2.154 3.385Zm-.413.04c-.297 0-.573-.09-.792-.23a1.118 1.118 0 0 1-.33-.311l3.338-2.226c-.384-.576-1.113-1.245-2.216-1.245v4.012Zm-1.149-.582 1.68 2.656 3.391-2.144-1.68-2.656-3.391 2.144Zm1.581 2.481-.011-.025a1.384 1.384 0 0 1-.083-.481h4.011c0-.559-.194-1.018-.329-1.288l-3.588 1.794Zm-.094-.506c0-.211.044-.428.133-.63.088-.197.201-.34.298-.437l2.837 2.837a2.491 2.491 0 0 0 .743-1.77h-4.011Zm.646-1.253a4.583 4.583 0 0 0-.489.42l2.837 2.837.014-.012.045-.036-2.407-3.21Zm-.298.253c-.685.53-1.604 1.106-2.785 1.72l1.853 3.559c1.32-.687 2.458-1.387 3.388-2.107l-2.456-3.172Zm-2.785 1.72c-1.132.59-2.457 1.136-3.986 1.629l1.232 3.818c1.701-.55 3.24-1.176 4.607-1.888l-1.853-3.558ZM189 57.822c-1.484.486-3.147.894-4.996 1.219l.695 3.951c2.005-.352 3.858-.803 5.551-1.358L189 57.82Zm-4.996 1.219a33.178 33.178 0 0 1-5.746.477v4.012c2.241 0 4.389-.177 6.441-.538l-.695-3.951Zm-5.746.477c-1.819 0-3.699-.181-5.642-.55l-.748 3.941c2.172.413 4.302.621 6.39.621v-4.012Zm-5.661-.554a22.583 22.583 0 0 1-5.455-1.723l-1.675 3.645a26.577 26.577 0 0 0 6.421 2.027l.709-3.949Zm-5.435-1.714c-1.753-.829-3.424-1.925-5.015-3.298l-2.622 3.036c1.847 1.595 3.821 2.895 5.922 3.889l1.715-3.627Zm-5.004-3.288c-1.511-1.326-2.862-2.987-4.043-5.01l-3.465 2.02c1.372 2.352 2.989 4.362 4.863 6.006l2.645-3.016Zm-4.037-5.002c-1.169-2.027-2.122-4.44-2.841-7.266l-3.888.989c.792 3.112 1.869 5.88 3.253 8.28l3.476-2.003Zm-2.836-7.246c-.683-2.804-1.037-6.102-1.037-9.916h-4.012c0 4.05.375 7.68 1.151 10.865l3.898-.949Zm-1.037-9.916c0-3.815.354-7.098 1.036-9.873l-3.896-.957c-.777 3.162-1.152 6.78-1.152 10.83h4.012Zm1.033-9.861c.719-2.85 1.671-5.26 2.834-7.253l-3.465-2.022c-1.389 2.381-2.468 5.155-3.259 8.294l3.89.98Zm2.84-7.262c1.181-2.049 2.531-3.72 4.037-5.04l-2.645-3.017c-1.878 1.647-3.497 3.674-4.868 6.053l3.476 2.004Zm4.026-5.03c1.586-1.37 3.251-2.45 4.995-3.251l-1.675-3.645c-2.11.97-4.091 2.26-5.942 3.859l2.622 3.036Zm5.015-3.26a21.583 21.583 0 0 1 5.435-1.753l-.709-3.95a25.595 25.595 0 0 0-6.441 2.076l1.715 3.627Zm5.454-1.757a30.22 30.22 0 0 1 5.642-.55V.063c-2.088 0-4.218.21-6.39.622l.748 3.94Zm5.642-.55c2.029 0 3.944.16 5.746.477l.695-3.952c-2.052-.36-4.2-.538-6.441-.538v4.012Zm5.746.477c1.849.324 3.512.733 4.996 1.22l1.25-3.813c-1.693-.555-3.546-1.006-5.551-1.359l-.695 3.952Zm5.005 1.222c1.529.493 2.854 1.038 3.986 1.628l1.853-3.558c-1.367-.712-2.906-1.34-4.607-1.888l-1.232 3.818Zm3.986 1.628c1.181.615 2.1 1.191 2.785 1.721l2.456-3.172c-.93-.72-2.068-1.42-3.388-2.107l-1.853 3.558Zm2.594 1.553h.001v.001h.001v.001h.001v.001h.001v.001h.001v.001l.001.001h.001v.001h.001v.001h.001v.001h.001v.001h.001v.001h.001v.001h.001v.001h.001v.001h.001v.001h.001v.001h.001v.001h.001v.001h.001v.001h.001v.001h.001v.001h.001v.001h.001v.001h.001v.001h.001v.001h.001v.001h.001v.001l.001.001h.001v.001h.001v.001h.001v.001h.001v.001h.001v.001h.001v.001h.001v.001h.001v.001h.001v.001h.001v.001l.001.001h.001v.001h.001v.001h.001V9h.001V9h.001v.001h.001v.001h.001v.001h.001v.001h.001v.001h.001v.001h.001v.001h.001v.001h.001v.001h.001v.001h.001v.001h.001v.001h.001v.001h.001v.001h.001v.001l.001.001.001.001.001.001.001.001.001.001.001.001.001.001h.001v.001h.001v.001l.001.001h.001v.001h.001v.001l.001.001.001.001.001.001.001.001.001.001.001.001.001.001.001.001h.001v.001h.001v.001h.001v.001h.001v.001h.001v.001h.001v.001h.001v.001h.001v.001h.001v.001h.001v.001h.001v.001h.001v.001h.001v.001h.001v.001h.001v.001h.001v.001h.001v.001h.001v.001h.001v.001h.001v.001l.001.001.001.001h.001v.001h.001v.001h.001v.001h.001v.001h.001v.001h.001v.001h.001v.001h.001v.001h.001v.001h.001v.001l.001.001.001.001h.001v.001h.001v.001h.001v.001h.001v.001h.001v.001h.001v.001h.001v.001h.001v.001l.001.001h.001v.001h.001v.001h.001v.001h.001v.001h.001v.001h.001v.001h.001v.001l.001.001h.001v.001h.001v.001h.001v.001h.001v.001h.001v.001h.001v.001l.001.001h.001v.001h.001v.001h.001v.001h.001v.001h.001v.001h.001V9.1l.001.001h.001v.001h.001v.001h.001v.001h.001v.001h.001v.001l.001.001h.001v.001h.001v.001h.001v.001h.001v.001h.001v.001l.001.001h.001v.001h.001v.001h.001v.001h.001v.001l.001.001h.001v.001h.001v.001h.001v.001h.001v.001h.001l.001.002h.001v.001h.001v.001h.001v.001l.001.001h.001v.001h.001v.001h.001v.001h.001v.001l.001.001h.001v.001h.001v.001h.001v.001h.001v.001l.001.001h.001v.001h.001v.001h.001v.001l.001.001h.001v.001h.001v.001h.001v.001h.001l.001.002h.001v.001h.001v.001h.001v.001l.001.001h.001v.001h.001v.001h.001v.001l.001.001h.001v.001h.001v.001h.001v.001l.001.001h.001v.001h.001v.001h.001v.002h.002v.001h.001v.001l.001.001h.001v.001h.001v.001h.001v.001l.001.001h.001v.001h.001v.001h.001v.002h.002v.001h.001v.001l.001.001h.001v.001h.001v.001h.001v.001l.001.001h.001v.001h.001v.001l.001.001h.001v.001h.001v.001h.001l.001.002h.001v.001h.001v.001l.001.001h.001v.001h.001v.001l.001.001h.001v.001h.001v.001l.001.001h.001v.001h.001v.001h.001l.001.002h.001v.001h.001l.001.002h.001v.001h.001v.002h.002v.001h.001v.002h.002v.001h.001v.001l.001.001h.001v.001h.001v.002h.002v.001h.001l.001.002h.001v.001h.001l.001.002h.001v.001l.001.001h.001v.001h.001v.001l.001.001h.001v.001h.001v.001l.001.001h.001v.001h.001l2.837-2.836h-.001l-.001-.001-.001-.001-.001-.002h-.001l-.001-.001v-.001h-.001l-.001-.001-.001-.001v-.001h-.001l-.001-.001-.001-.001-.001-.001-.001-.001-.001-.001-.001-.001-.001-.001-.001-.001-.001-.001-.001-.001-.001-.001-.001-.001-.001-.001-.001-.001-.001-.001-.001-.001-.001-.001-.001-.001-.001-.001-.001-.001-.001-.001-.001-.001-.001-.001V6.36h-.001l-.001-.001-.001-.001v-.001h-.001l-.001-.001-.001-.001-.001-.002h-.001l-.001-.001-.001-.001-.001-.001-.001-.001-.001-.001v-.001h-.001l-.001-.001-.001-.001-.001-.002h-.001l-.001-.001-.001-.001-.001-.001-.001-.001-.001-.001-.001-.002h-.001l-.001-.001-.001-.001v-.001h-.001l-.001-.001-.001-.001-.001-.001-.001-.001-.001-.001-.001-.001v-.001h-.001l-.001-.001-.001-.001-.001-.001v-.001h-.001l-.001-.001-.001-.001-.001-.001v-.001h-.001l-.001-.001-.001-.001-.001-.001v-.001h-.001l-.001-.001-.001-.001-.001-.001V6.31h-.001l-.001-.001-.001-.001-.001-.001-.001-.002h-.001l-.001-.001-.001-.001-.001-.001-.001-.001-.001-.001-.001-.001-.001-.001v-.001h-.001l-.001-.001-.001-.001-.001-.001-.001-.001-.001-.001-.001-.001-.001-.001-.001-.001-.001-.001-.001-.001-.001-.001-.001-.001-.001-.001-.001-.001-.001-.001-.001-.001-.001-.001-.001-.001-.001-.001v-.001h-.001l-.001-.001-.001-.001-.001-.001-.001-.001-.001-.001-.001-.001-.001-.001-.001-.001-.001-.001-.001-.001-.001-.001-.001-.001-.001-.001-.001-.001-.001-.001-.001-.001-.001-.001V6.26h-.001l-.001-.001-.001-.001-.001-.001-.001-.001-.001-.001-.001-.001v-.001h-.001l-.001-.001-.001-.001-.001-.001-.001-.001-.001-.001-.001-.001v-.001h-.001l-.001-.001-.001-.001-.001-.001-.001-.001-.001-.001-.001-.001-.001-.001-.001-.001v-.001h-.001l-.001-.001-.001-.001-.001-.001-.001-.001-.001-.001-.001-.001-.001-.001-.001-.001-.001-.001v-.001h-.001l-.001-.001-.001-.001-.001-.001-.001-.001-.001-.001-.001-.001-.001-.001-.001-.001-.001-.001-.001-.001-.001-.001-.001-.001-.001-.001v-.001h-.001v-.001h-.001l-.001-.001-.001-.001-.001-.001-.001-.001-.001-.001-.001-.001-.001-.001-.001-.001-.001-.001-.001-.001-.001-.001-.001-.001-.001-.001-.001-.001-.001-.001-.001-.001-.001-.001-.001-.001-.001-.001-.001-.001-.001-.001-.001-.001-.001-.001-.001-.001-.001-.001-.001-.001-.001-.001-.001-.001-.001-.001-.001-.001-.001-.001-.001-.001-.001-.001-.001-.001-.001-.001-.001-.001-.001-.001-.001-.001-.001-.001-.001-.001-.001-.001-.001-.001-.001-.001-.001-.001-.001-.001v-.001h-.001v-.001h-.001l-.001-.001-.001-.001-.001-.001-.001-.001-.001-.001-.001-.001-.001-.001-.001-.001-.001-.001-.001-.001-.001-.001-.001-.001v-.001h-.001l-.001-.001-.001-.001-.001-.001-.001-.001-.001-.001-.001-.001-.001-.001-.001-.001v-.001h-.001l-.001-.001-.001-.001-.001-.001-.001-.001-.001-.001-.001-.001-.001-.001v-.001h-.001l-.001-.001-.001-.001-.001-.001-.001-.001-.001-.001-.001-.001-.001-.001-.001-.001-.001-.001-.001-.001-.001-.001-.001-.001-.001-.001-.001-.001-2.837 2.836Zm.489.46a1.614 1.614 0 0 1-.474-.57 1.617 1.617 0 0 1-.172-.722h4.011c0-.762-.349-1.46-.958-1.917l-2.407 3.21Zm-.646-1.292a1.384 1.384 0 0 1 .083-.481l.011-.025 3.588 1.794c.135-.27.329-.73.329-1.288h-4.011Zm.193-.681-1.68 2.656 3.391 2.144 1.68-2.656-3.391-2.144Zm-1.653 2.615c.031-.046.13-.182.33-.31.219-.141.495-.231.792-.231v4.011c1.103 0 1.832-.669 2.216-1.245l-3.338-2.225Zm1.122-.541c.125 0 .22.015.277.026a.804.804 0 0 1 .107.03c.021.007-.005 0-.088-.046l-1.921 3.522c.326.178.929.48 1.625.48V9.517Zm.486.128a10.185 10.185 0 0 0-1.269-.737l-1.794 3.588c.365.183.61.329.762.435l2.301-3.286Zm-1.183-.691a8.88 8.88 0 0 0-1.813-.76l-1.153 3.844c.399.119.728.26 1 .412l1.966-3.496Zm-1.727-.731a7.294 7.294 0 0 0-2.42-.386v4.012c.465 0 .822.065 1.095.16l1.325-3.786Zm-2.42-.386c-.816 0-1.636.148-2.447.408l1.222 3.82c.491-.156.895-.216 1.225-.216V7.838Zm-2.398.393c-.995.29-1.883.86-2.668 1.58l2.71 2.957c.465-.426.827-.612 1.082-.686l-1.124-3.851Zm-2.634 1.548c-.838.734-1.577 1.706-2.243 2.835l3.456 2.038c.532-.902 1.017-1.493 1.429-1.853l-2.642-3.02Zm-2.251 2.849c-.692 1.195-1.255 2.691-1.724 4.427l3.873 1.046c.417-1.546.869-2.679 1.323-3.463l-3.472-2.01Zm-1.73 4.449c-.447 1.735-.8 3.814-1.067 6.217l3.988.443c.254-2.285.578-4.164.964-5.658l-3.885-1.002Zm-1.066 6.215c-.271 2.413-.403 5.252-.403 8.505h4.011c0-3.154.129-5.836.378-8.057l-3.986-.448Zm-7.005 8.505c0 3.284.145 6.167.444 8.639l3.983-.481c-.274-2.268-.415-4.983-.415-8.158h-4.012Zm.447 8.66c.322 2.446.758 4.602 1.319 6.453l3.839-1.164c-.481-1.586-.878-3.518-1.181-5.813l-3.977.525Zm1.33 6.488c.581 1.8 1.269 3.37 2.085 4.669l3.397-2.134c-.59-.94-1.153-2.183-1.665-3.768l-3.817 1.233Zm2.103 4.696c.803 1.234 1.679 2.3 2.641 3.168l2.689-2.977c-.653-.59-1.313-1.373-1.969-2.38l-3.361 2.19Zm2.692 3.212c.952.804 1.952 1.457 3.002 1.934l1.66-3.652c-.668-.304-1.361-.745-2.075-1.348l-2.587 3.066Zm3.069 1.963c.972.4 1.941.72 2.908.954l.945-3.9a16.064 16.064 0 0 1-2.326-.764l-1.527 3.71Zm4.457-2.688-1.177-.746-2.143 3.392c.495.312.883.558 1.167.739l2.153-3.385Zm-1.116-.705c-.325-.223-.757-.6-1.297-1.187l-2.952 2.716c.658.715 1.32 1.327 1.984 1.782l2.265-3.311Zm-1.242-1.125c-.459-.542-.971-1.305-1.529-2.324l-3.519 1.927c.64 1.168 1.299 2.176 1.986 2.988l3.062-2.59Zm-1.503-2.274c-.495-.968-.987-2.257-1.46-3.9l-3.855 1.11c.517 1.796 1.093 3.346 1.743 4.617l3.572-1.827Zm-1.452-3.872c-.438-1.604-.813-3.579-1.118-5.94l-3.979.513c.321 2.483.726 4.649 1.226 6.483l3.871-1.056Zm-1.115-5.916c-.275-2.35-.416-5.158-.416-8.44h-4.012c0 3.387.145 6.36.443 8.906l3.985-.466Zm-.416-8.44c0-3.28.141-6.075.416-8.396l-3.984-.472c-.299 2.523-.444 5.483-.444 8.869h4.012Zm.413-8.378c.305-2.388.681-4.374 1.118-5.976l-3.871-1.056c-.5 1.836-.906 4.016-1.226 6.524l3.979.508Zm1.11-5.949c.473-1.641.962-2.91 1.451-3.843l-3.554-1.861c-.656 1.253-1.235 2.798-1.752 4.594l3.855 1.11Zm1.443-3.828c.556-1.04 1.059-1.781 1.495-2.277l-3.012-2.65c-.71.807-1.379 1.836-2.021 3.035l3.538 1.892Zm1.491-2.273c.534-.603.938-.945 1.21-1.117l-2.143-3.392c-.717.453-1.407 1.1-2.071 1.851l3.004 2.658Zm1.271-1.158c.488-.334.858-.58 1.116-.744l-2.153-3.385c-.315.2-.726.475-1.228.818l2.265 3.311Zm-.488-4.372c-.946.258-1.897.585-2.853.98l1.527 3.709a20.265 20.265 0 0 1 2.381-.818l-1.055-3.87Zm-2.873.987c-1.088.462-2.112 1.134-3.077 1.978l2.642 3.02c.702-.615 1.371-1.037 2.002-1.305l-1.567-3.693ZM179.714 8.8c-.977.85-1.862 1.914-2.668 3.152l3.361 2.19c.652-1.002 1.304-1.761 1.942-2.317L179.714 8.8Zm-2.686 3.18c-.819 1.304-1.507 2.89-2.088 4.716l3.823 1.217c.513-1.612 1.075-2.864 1.662-3.8l-3.397-2.133Zm-2.094 4.735c-.563 1.83-.999 3.976-1.321 6.421l3.977.525c.303-2.295.7-4.21 1.179-5.766l-3.835-1.18Zm-1.324 6.443c-.299 2.472-.444 5.355-.444 8.639h4.012c0-3.175.141-5.89.415-8.158l-3.983-.481Zm38.046-13.549h2.006V7.125l-2.428.523.422 1.961Zm-4.687.977-.394-1.967-.008.002-.007.001.409 1.964Zm-1.875.351-.33-1.978-.014.002.344 1.976Zm-1.719.313.284 1.986.046-.007.045-.008-.375-1.971Zm-1.484.195-.235-1.992-.007.001h-.007l.249 1.991Zm-2.071-.156-1.077 1.692.088.056.092.046.897-1.794Zm.196-6.758 1.372 1.464.023-.022.023-.023-1.418-1.419Zm52.382 0L250.98 5.95l.023.022.024.023 1.371-1.464Zm.157 6.758.96 1.761.026-.014.024-.014-1.01-1.733Zm-3.516-.039-.375 1.97.045.01.046.006.284-1.986Zm-1.758-.313-.343 1.977.013.002.33-1.979Zm-1.836-.351.409-1.964-.007-.001-.008-.002-.394 1.967Zm-4.687-.977.422-1.96-2.428-.524V9.61h2.006Zm-.235 47.383 1.951.468.002-.008.002-.009-1.955-.45Zm-.898 1.68-1.458-1.377-.003.002 1.461 1.375Zm-1.758 1.016.534 1.933.03-.008.031-.01-.595-1.916Zm-23.32-.04-.595 1.916.009.003.009.003.577-1.922Zm-1.797-1.015-1.461 1.375.021.022.022.021 1.418-1.418Zm24.688-49.844h2.005V7.173l-1.578-.344-.427 1.96Zm-3.047-.664.427-1.96-2.433-.53v2.49h2.006Zm0 48.594h-2.006v2.006h2.006v-2.006Zm1.523-.04.133 2.002.067-.004.065-.009-.265-1.988Zm.938-.312 1.112 1.67.061-.041.058-.046-1.231-1.583Zm.468-.742 1.946.486.005-.017.004-.018-1.955-.451ZM211.234 7.648c-1.685.363-3.238.687-4.659.971l.787 3.934c1.444-.289 3.016-.616 4.717-.983l-.845-3.922Zm-4.674.974a45.55 45.55 0 0 1-1.796.337l.66 3.957a49.65 49.65 0 0 0 1.954-.366l-.818-3.928Zm-1.81.34c-.609.105-1.192.211-1.75.318l.75 3.94c.536-.102 1.098-.204 1.687-.306l-.687-3.953Zm-1.659.302c-.534.077-1.012.14-1.435.19l.469 3.983c.462-.054.974-.121 1.534-.201l-.568-3.972Zm-1.449.19c-.399.05-.61.064-.689.064v4.011c.338 0 .752-.039 1.186-.093l-.497-3.981Zm-.689.064c-.212 0-.266-.038-.236-.023l-1.794 3.588c.656.328 1.357.446 2.03.446V9.518Zm-.056.079c.249.158.393.373.459.535.055.136.041.194.041.102h-4.012c0 .82.229 2.028 1.358 2.747l2.154-3.384Zm.5.637V5.86h-4.012v4.375h4.012Zm0-4.375a.401.401 0 0 1-.035.151c-.02.043-.028.035.026-.015l-2.744-2.927c-.753.706-1.259 1.655-1.259 2.791h4.012Zm.037.09c-.051.052-.076.046-.006.024.079-.025.248-.06.541-.06V1.9c-1.154 0-2.426.267-3.372 1.213l2.837 2.837Zm.535-.037h48.476V1.9h-48.476v4.012Zm48.476 0c.293 0 .462.036.541.061.07.022.045.028-.006-.023l2.837-2.837c-.946-.946-2.218-1.213-3.372-1.213v4.012Zm.582.083c.053.05.045.058.025.015a.379.379 0 0 1-.034-.15h4.011c0-1.137-.506-2.086-1.259-2.792l-2.743 2.927Zm-.009-.136v4.375h4.011V5.86h-4.011Zm0 4.375c0 .074-.013-.006.055-.16.082-.183.24-.383.471-.518l2.021 3.466c1.179-.688 1.464-1.9 1.464-2.788h-4.011Zm.576-.706c.049-.026.072-.029.052-.025a.933.933 0 0 1-.185.015v4.011c.664 0 1.387-.115 2.054-.479l-1.921-3.522Zm-.133-.01c-.111 0-.34-.015-.728-.063l-.497 3.98c.445.056.867.094 1.225.094V9.518Zm-.728-.063c-.402-.05-.872-.114-1.41-.19l-.568 3.97c.555.08 1.049.147 1.481.2l.497-3.98Zm-1.319-.175a79.835 79.835 0 0 0-1.803-.321l-.66 3.957c.612.102 1.183.204 1.713.304l.75-3.94Zm-1.789-.319c-.576-.1-1.166-.213-1.771-.339l-.818 3.928c.646.134 1.28.256 1.902.364l.687-3.953Zm-1.786-.342a325.128 325.128 0 0 1-4.659-.97l-.845 3.921c1.701.367 3.273.694 4.717.983l.787-3.934Zm-7.087.99v45.04h4.012V9.608h-4.012Zm0 45.04c0 .772-.069 1.397-.183 1.892l3.909.902c.198-.859.286-1.796.286-2.795h-4.012Zm-.179 1.875a1.64 1.64 0 0 1-.406.77l2.916 2.755a5.642 5.642 0 0 0 1.391-2.589l-3.901-.936Zm-.409.773c-.118.126-.37.313-.891.475l1.189 3.831c.989-.307 1.909-.797 2.624-1.556l-2.922-2.75Zm-.83.457c-.519.143-1.286.24-2.357.24v4.012c1.272 0 2.432-.111 3.424-.385l-1.067-3.867Zm-2.357.24h-17.422v4.012h17.422v-4.012Zm-17.422 0c-1.116 0-1.906-.11-2.432-.267l-1.153 3.843c1.037.31 2.253.436 3.585.436v-4.012Zm-2.414-.261c-.524-.163-.813-.359-.973-.519l-2.836 2.837c.725.726 1.634 1.207 2.62 1.513l1.189-3.831Zm-.93-.475c-.14-.149-.278-.375-.366-.756l-3.909.902c.225.973.66 1.867 1.353 2.604l2.922-2.75Zm-.366-.756c-.113-.492-.183-1.128-.183-1.932h-4.012c0 1.02.087 1.972.286 2.834l3.909-.902Zm-.183-1.932V9.61h-4.012v44.96h4.012Zm24.203-47.74-3.047-.665-.855 3.92 3.047.664.855-3.92Zm-5.48 1.295v48.594h4.012V8.125h-4.012Zm2.006 50.6c.646 0 1.203-.014 1.656-.044l-.266-4.003c-.329.022-.787.035-1.39.035v4.012Zm1.788-.057c.58-.077 1.216-.252 1.785-.632l-2.225-3.338c.054-.036.083-.043.068-.038a.91.91 0 0 1-.158.031l.53 3.977Zm1.904-.718a3.315 3.315 0 0 0 1.183-1.839l-3.892-.972a.744.744 0 0 1 .246-.355l2.463 3.166Zm1.192-1.874c.128-.555.168-1.199.168-1.857h-4.011c0 .54-.038.833-.066.955l3.909.902Zm.168-1.857V8.789h-4.011v45.43h4.011Zm60.495 6.758-.346 1.975.004.001.342-1.976Zm-11.407-5.391-1.334 1.498.007.006.006.005 1.321-1.51Zm-4.375-5.508-1.755.97.007.013.007.012 1.741-.995Zm-2.89-7.812-1.954.454.001.004 1.953-.458Zm0-20.977-1.954-.455 1.954.455Zm2.89-7.812-1.746-.987-.004.007 1.75.98Zm4.375-5.508-1.321-1.51 1.321 1.51Zm5.391-3.477.817 1.832.01-.004.01-.005-.837-1.823Zm6.016-1.875-.342-1.976h-.004l.346 1.976Zm18.632 1.875-.837 1.823.01.005.01.004.817-1.832Zm9.727 8.985-1.756.97.005.009 1.751-.98Zm2.695 29.648 1.94.509.001-.004-1.941-.505Zm-3.437 8.164-1.687-1.086-.73 1.134.775 1.104 1.642-1.152Zm5.507 7.852 1.685-1.09-.021-.032-.021-.03-1.643 1.152Zm.04 2.07-1.419-1.418-.071.07-.063.078 1.553 1.27Zm-.821.703.974 1.753.019-.01.018-.01-1.011-1.733Zm-2.461 1.367-.974-1.753-.01.006-.011.006.995 1.741Zm-.547.235-.551-1.93-.122.036-.117.05.79 1.844Zm-2.265-1.094 1.773-.939-.006-.01-.006-.012-1.761.96Zm-3.516-6.445 1.761-.961-1.182-2.166-1.879 1.599 1.3 1.528Zm-8.203 4.296-.542-1.93-.02.005-.021.006.583 1.92Zm-4.492.938-.236-1.992-.017.002-.017.002.27 1.988Zm9.141-18.75.941 1.77.062-.032.06-.037-1.063-1.701Zm1.718.469 1.645-1.15-.016-.022-.017-.022-1.612 1.194Zm1.992 2.851-1.644 1.149 1.65 2.362 1.642-2.367-1.648-1.144Zm2.188-5.312 1.945.492.001-.006-1.946-.486Zm.117-16.875-1.961.42.002.011.003.011 1.956-.442Zm-1.914-5.274-1.729 1.017.007.013.008.012 1.714-1.042Zm-2.695-2.812-.986 1.747.017.01.018.009.951-1.766Zm-6.25 0 .97 1.756.008-.005.007-.004-.985-1.747Zm-4.649 8.086-1.956-.443-.003.011-.002.012 1.961.42Zm0 16.328-1.961.42.002.011.003.011 1.956-.442Zm4.649 8.125-1.005 1.736.027.015.027.015.951-1.766Zm4.492.664.486 1.946 2.503-.626-1.223-2.271-1.766.95Zm-1.914-3.555-1.766.951 1.766-.95Zm-.195-.937 1.973.359.003-.015.002-.015-1.978-.33Zm.625-.782-.942-1.77-.027.014-.027.015.996 1.742ZM307.203 23.32l-1.954-.45-.003.01-.002.01 1.959.43Zm4.883-9.453 1.229 1.586.005-.005-1.234-1.58Zm3.203-1.562.384 1.969-.486-3.973.102 2.004Zm-8.398 4.61-1.608-1.2-.007.009-.006.009 1.621 1.181Zm-2.696 5.976 1.932.54.002-.006-1.934-.534Zm0 17.773-1.933.535.001.005 1.932-.54Zm2.696 5.938-1.621 1.181.006.009.007.009 1.608-1.2ZM310.797 50l-.897 1.794.897-1.794Zm4.492 1.21-.102 2.004.44-3.98-.338 1.977Zm-3.203-1.523-1.253 1.567.009.007.01.008 1.234-1.581Zm-4.883-9.492-1.959.43.002.011.003.01 1.954-.45Zm-.976 19.322a34.87 34.87 0 0 1-5.948-.517l-.683 3.953a38.87 38.87 0 0 0 6.631.576v-4.012Zm-5.944-.516a22.441 22.441 0 0 1-5.524-1.722l-1.675 3.645a26.457 26.457 0 0 0 6.508 2.028l.691-3.951Zm-5.524-1.722a20.308 20.308 0 0 1-4.907-3.203l-2.642 3.02a24.322 24.322 0 0 0 5.874 3.828l1.675-3.645Zm-4.894-3.191c-1.485-1.323-2.811-2.982-3.967-5.005l-3.483 1.99c1.344 2.352 2.934 4.365 4.782 6.01l2.668-2.995Zm-3.953-4.98c-1.119-2.023-2.024-4.448-2.694-7.3l-3.905.916c.736 3.137 1.758 5.92 3.088 8.325l3.511-1.941Zm-2.693-7.297c-.66-2.837-1.002-6.181-1.002-10.053h-4.012c0 4.096.361 7.757 1.107 10.962l3.907-.91Zm-1.002-10.053c0-3.845.342-7.177 1.002-10.014l-3.907-.91c-.746 3.205-1.107 6.852-1.107 10.924h4.012Zm1.002-10.014c.67-2.88 1.575-5.299 2.688-7.288l-3.501-1.959c-1.335 2.386-2.358 5.175-3.094 8.337l3.907.91Zm2.684-7.281c1.155-2.045 2.476-3.696 3.949-4.985L287.21 6.46c-1.86 1.628-3.455 3.65-4.8 6.031l3.493 1.973Zm3.949-4.985a19.39 19.39 0 0 1 4.887-3.154l-1.634-3.664a23.407 23.407 0 0 0-5.895 3.8l2.642 3.018Zm4.907-3.163a22.44 22.44 0 0 1 5.524-1.722l-.691-3.952a26.457 26.457 0 0 0-6.508 2.028l1.675 3.646Zm5.52-1.721c2-.346 3.982-.518 5.948-.518V.064c-2.201 0-4.412.193-6.631.577l.683 3.953Zm5.948-.518c1.965 0 3.947.172 5.947.518l.683-3.953a38.864 38.864 0 0 0-6.63-.577v4.012Zm5.947.518c1.94.335 3.791.909 5.559 1.72l1.675-3.645a26.404 26.404 0 0 0-6.551-2.028l-.683 3.953Zm5.579 1.73a19.39 19.39 0 0 1 4.887 3.154l2.642-3.019a23.407 23.407 0 0 0-5.895-3.799l-1.634 3.664Zm4.887 3.154c1.469 1.286 2.774 2.93 3.901 4.97l3.511-1.942c-1.32-2.389-2.906-4.415-4.77-6.047l-2.642 3.02Zm3.906 4.978c1.114 1.99 2.018 4.409 2.688 7.288l3.907-.91c-.736-3.162-1.759-5.951-3.094-8.337l-3.501 1.959Zm2.688 7.288c.66 2.837 1.002 6.169 1.002 10.014h4.012c0-4.072-.361-7.72-1.107-10.924l-3.907.91Zm1.002 10.014c0 4.256-.406 7.867-1.185 10.862l3.882 1.01c.888-3.411 1.315-7.378 1.315-11.872h-4.012Zm-1.184 10.858c-.791 3.016-1.862 5.533-3.184 7.587l3.373 2.172c1.595-2.478 2.816-5.403 3.691-8.741l-3.88-1.018Zm-3.139 9.825 5.507 7.852 3.285-2.304-5.508-7.852-3.284 2.304Zm5.465 7.79c.043.065.074.119.096.16a.7.7 0 0 1 .035.076c.004.01-.001-.002-.008-.032a.837.837 0 0 1-.015-.162h4.012c0-.882-.384-1.654-.751-2.222l-3.369 2.18Zm.108.042c0-.062.013-.157.057-.263a.69.69 0 0 1 .14-.217l2.837 2.836a3.284 3.284 0 0 0 .978-2.356h-4.012Zm.063-.332a1.006 1.006 0 0 1-.278.24l2.021 3.466c.524-.306.98-.698 1.362-1.166l-3.105-2.54Zm-.242.22-2.461 1.367 1.948 3.507 2.461-1.367-1.948-3.507Zm-2.482 1.379a.475.475 0 0 1-.103.047l1.102 3.857c.353-.1.684-.245.992-.421l-1.991-3.483Zm-.342.132a.54.54 0 0 1 .205-.045v4.012c.466 0 .931-.09 1.376-.28l-1.581-3.687Zm.205-.045c.041 0 .085.006.125.018.038.012.056.024.053.022l-2.154 3.385a3.655 3.655 0 0 0 1.976.587v-4.012Zm.178.04c.062.04.077.065.054.037a1.27 1.27 0 0 1-.139-.22l-3.546 1.876c.325.614.79 1.255 1.477 1.692l2.154-3.385Zm-.097-.206-3.516-6.445-3.522 1.921 3.516 6.445 3.522-1.92Zm-6.577-7.012a18.056 18.056 0 0 1-3.517 2.357l1.821 3.575a22.064 22.064 0 0 0 4.296-2.877l-2.6-3.055Zm-3.517 2.357a21.347 21.347 0 0 1-3.928 1.536l1.084 3.863a25.343 25.343 0 0 0 4.665-1.824l-1.821-3.575Zm-3.969 1.548a23.954 23.954 0 0 1-4.145.865l.472 3.984a27.969 27.969 0 0 0 4.839-1.01l-1.166-3.839Zm-4.179.87a31.96 31.96 0 0 1-4.3.294v4.011c1.602 0 3.216-.11 4.839-.33l-.539-3.976Zm10.474-15.062c-.01.006-.084.05-.219.077a1.057 1.057 0 0 1-.474-.019c-.311-.084-.378-.251-.264-.096l3.224-2.388c-.406-.549-1.02-1.145-1.904-1.386-.952-.26-1.825-.005-2.49.41l2.127 3.402Zm-.989-.084 1.992 2.852 3.289-2.297-1.992-2.852-3.289 2.297Zm5.284 2.847c1.074-1.547 1.879-3.572 2.485-5.964l-3.89-.984c-.54 2.138-1.193 3.656-1.891 4.66l3.296 2.288Zm2.486-5.97c.627-2.508.919-5.589.919-9.197h-4.012c0 3.423-.28 6.149-.799 8.224l3.892.973Zm.919-9.197c0-3.344-.253-6.225-.791-8.607l-3.913.885c.451 1.994.692 4.555.692 7.722h4.012Zm-.787-8.584c-.496-2.32-1.198-4.311-2.161-5.896l-3.428 2.084c.652 1.072 1.226 2.596 1.667 4.652l3.922-.84Zm-2.146-5.87c-.907-1.542-2.044-2.792-3.473-3.562l-1.902 3.532c.601.324 1.261.948 1.917 2.063l3.458-2.034Zm-3.439-3.543c-1.288-.727-2.666-1.118-4.11-1.118v4.011c.691 0 1.396.182 2.139.6l1.971-3.493Zm-4.11-1.118c-1.445 0-2.823.391-4.111 1.118l1.971 3.494c.744-.42 1.449-.6 2.14-.6v-4.013Zm-4.095 1.11c-1.389.767-2.516 2.006-3.44 3.525l3.429 2.084c.69-1.136 1.361-1.772 1.951-2.098l-1.94-3.512Zm-3.44 3.525c-.957 1.576-1.672 3.56-2.195 5.873l3.913.885c.466-2.061 1.054-3.593 1.711-4.674l-3.429-2.084Zm-2.2 5.896c-.508 2.372-.748 5.245-.748 8.584h4.012c0-3.172.23-5.741.659-7.744l-3.923-.84Zm-.748 8.584c0 3.339.24 6.212.748 8.584l3.923-.84c-.429-2.003-.659-4.573-.659-7.744h-4.012Zm.753 8.606c.523 2.314 1.238 4.297 2.195 5.873l3.429-2.084c-.657-1.08-1.245-2.612-1.711-4.674l-3.913.885Zm2.195 5.873c.922 1.517 2.039 2.755 3.405 3.546l2.01-3.472c-.613-.355-1.294-1.018-1.986-2.158l-3.429 2.084Zm3.459 3.576c1.284.691 2.65 1.06 4.076 1.06v-4.012c-.71 0-1.427-.178-2.174-.58l-1.902 3.532Zm4.076 1.06c.634 0 1.256-.067 1.853-.216l-.973-3.892a3.628 3.628 0 0 1-.88.096v4.012Zm3.133-3.113-1.914-3.555-3.532 1.902 1.914 3.555 3.532-1.902Zm-1.914-3.555c-.036-.067.064.086.012.373l-3.947-.718c-.156.86.074 1.637.403 2.247l3.532-1.902Zm.017.343c-.033.2-.119.371-.217.494-.089.111-.159.147-.141.137l-1.991-3.483c-.705.403-1.427 1.106-1.608 2.193l3.957.66Zm-.411.66 1.835-.976-1.883-3.542-1.836.977 1.884 3.541Zm-10.616-13.45c0-3.156.253-5.817.734-8.007l-3.918-.861c-.56 2.55-.828 5.514-.828 8.868h4.012Zm.73-7.987c.521-2.257 1.159-4.044 1.885-5.405l-3.539-1.888c-.941 1.764-1.683 3.909-2.255 6.391l3.909.902Zm1.885-5.405c.744-1.394 1.516-2.328 2.272-2.913l-2.458-3.171c-1.328 1.029-2.43 2.465-3.353 4.196l3.539 1.888Zm2.277-2.918c.879-.685 1.662-1.04 2.353-1.175l-.768-3.937c-1.444.282-2.796.969-4.053 1.95l2.468 3.162Zm1.867-5.147c-1.829.093-3.596.575-5.287 1.42l1.794 3.589c1.226-.613 2.453-.939 3.697-1.002l-.204-4.007Zm-5.287 1.42c-1.784.892-3.317 2.25-4.617 3.994l3.216 2.398c.991-1.329 2.062-2.237 3.195-2.803l-1.794-3.588Zm-4.63 4.012c-1.301 1.784-2.287 4.016-3.008 6.623l3.867 1.07c.633-2.29 1.444-4.042 2.383-5.33l-3.242-2.363Zm-3.007 6.617c-.741 2.651-1.089 5.8-1.089 9.408h4.012c0-3.372.328-6.134.941-8.327l-3.864-1.08Zm-1.089 9.408c0 3.608.349 6.768 1.088 9.44l3.867-1.069c-.615-2.222-.943-5-.943-8.371h-4.012Zm1.089 9.446c.722 2.582 1.708 4.798 3.007 6.579l3.242-2.363c-.942-1.292-1.753-3.035-2.385-5.296l-3.864 1.08Zm3.02 6.597c1.3 1.743 2.833 3.101 4.617 3.993l1.794-3.588c-1.133-.567-2.204-1.474-3.195-2.804l-3.216 2.399Zm4.617 3.993c1.691.846 3.458 1.327 5.287 1.42l.204-4.006c-1.244-.064-2.471-.39-3.697-1.002l-1.794 3.588Zm5.727-2.56c-.669-.114-1.436-.448-2.307-1.128l-2.468 3.163c1.265.987 2.633 1.669 4.099 1.92l.676-3.955Zm-2.288-1.113c-.771-.617-1.551-1.574-2.296-2.971l-3.539 1.888c.921 1.728 2.017 3.166 3.329 4.216l2.506-3.133Zm-2.296-2.971c-.726-1.362-1.364-3.149-1.885-5.406l-3.909.902c.572 2.483 1.314 4.628 2.255 6.392l3.539-1.888Zm-1.881-5.385c-.481-2.19-.734-4.851-.734-8.007h-4.012c0 3.354.268 6.318.828 8.868l3.918-.861Zm71.557 7.852 1.942.503.001-.006-1.943-.497Zm-5.977 9.727 1.209 1.6-1.209-1.6Zm-4.531 2.5-.714-1.875-.01.004.724 1.87Zm-5.156 1.289-.256-1.99-.016.002-.016.003.288 1.985Zm-10.782.039.264-1.989-.013-.001-.013-.002-.238 1.992Zm-5-1.172-.69 1.883.01.004.68-1.887Zm-4.375-2.383-1.203 1.605 1.203-1.605Zm-3.515-3.945-1.71 1.048 1.71-1.048Zm-2.344-5.82-1.95.47.003.01.002.011 1.945-.491Zm.313-42.54 1.418 1.419.02-.02.02-.021-1.458-1.378Zm25.742-.742-.989 1.745.012.007.012.007.965-1.759Zm1.679 1.68-1.821.84.02.043.022.042 1.779-.925Zm.547 2.11-2.004.069v.002l2.004-.072Zm.039 45.82h-2.006v2.447l2.4-.48-.394-1.967Zm5.079-3.242-1.709-1.052 1.709 1.051Zm1.835-46.446-1.769-.944-.026.047-.022.049 1.817.848Zm6.719-.312-1.166 1.632.083.059.088.05.995-1.741Zm.43.547-1.863.745.015.035.015.034 1.833-.814Zm-17.969 2.851-1.231 1.583.057.045.061.041 1.113-1.669Zm-.937-.312-.265 1.988.065.009.066.004.134-2.001Zm-1.524-.079V5.183h-2.006v2.005h2.006Zm0 47.422h-2.006v2.006h2.006V54.61Zm3.047 0v2.006h2.006V54.61h-2.006Zm15.533-14.804c0 2.846-.275 5.276-.797 7.315l3.887.994c.624-2.44.922-5.218.922-8.31h-4.012Zm-.795 7.31c-.531 2.052-1.253 3.767-2.139 5.176l3.396 2.136c1.145-1.82 2.012-3.932 2.627-6.307l-3.884-1.005Zm-2.139 5.176c-.899 1.43-1.937 2.57-3.104 3.452l2.417 3.202c1.593-1.203 2.951-2.718 4.083-4.518l-3.396-2.136Zm-3.104 3.452a16.296 16.296 0 0 1-4.037 2.226l1.428 3.75a20.299 20.299 0 0 0 5.026-2.774l-2.417-3.202Zm-4.047 2.23a20 20 0 0 1-4.688 1.17l.511 3.98a23.997 23.997 0 0 0 5.625-1.409l-1.448-3.74Zm-4.72 1.175c-1.7.246-3.427.37-5.181.37v4.011c1.943 0 3.863-.137 5.756-.411l-.575-3.97Zm-5.181.37a38.42 38.42 0 0 1-5.049-.335l-.527 3.977c1.858.246 3.716.37 5.576.37v-4.013Zm-5.075-.338a20.571 20.571 0 0 1-4.557-1.067l-1.361 3.774a24.573 24.573 0 0 0 5.443 1.277l.475-3.984Zm-4.547-1.063a15.01 15.01 0 0 1-3.862-2.104l-2.407 3.209a19.04 19.04 0 0 0 4.888 2.661l1.381-3.766Zm-3.862-2.104c-1.129-.847-2.136-1.965-3.009-3.39l-3.42 2.097c1.106 1.805 2.443 3.317 4.022 4.502l2.407-3.21Zm-3.009-3.39c-.862-1.406-1.575-3.15-2.109-5.263l-3.89.983c.612 2.418 1.462 4.555 2.579 6.377l3.42-2.096Zm-2.104-5.242c-.5-2.07-.764-4.587-.764-7.576h-4.012c0 3.209.282 6.056.876 8.517l3.9-.941Zm-.764-7.576V9.375h-4.012v30.43h4.012Zm0-30.43c0-.804.069-1.44.183-1.932l-3.909-.902c-.199.863-.286 1.815-.286 2.834h4.012Zm.183-1.932c.081-.352.214-.564.362-.712l-2.837-2.837c-.737.737-1.203 1.645-1.434 2.647l3.909.902Zm.402-.753c.145-.154.421-.351.954-.51l-1.153-3.843c-1.03.309-1.978.815-2.718 1.598l2.917 2.755Zm.954-.51c.523-.158 1.323-.268 2.47-.268V1.9c-1.353 0-2.583.125-3.623.437l1.153 3.842Zm2.47-.268h17.422V1.9h-17.422v4.012Zm17.422 0c1.373 0 2.11.211 2.449.403l1.978-3.49c-1.224-.693-2.778-.925-4.427-.925v4.012Zm2.473.417c.521.286.729.558.823.762l3.643-1.682c-.531-1.15-1.443-1.998-2.537-2.597l-1.929 3.517Zm.865.846c.196.378.306.788.322 1.253l4.009-.138a6.877 6.877 0 0 0-.772-2.965l-3.559 1.85Zm.322 1.256c.025.71.037 1.362.037 1.96h4.012c0-.653-.013-1.354-.04-2.103l-4.009.143Zm.037 1.96V54.18h4.012V10.39h-4.012Zm2.4 45.756c2.77-.554 5.001-1.896 6.393-4.158l-3.417-2.103c-.691 1.123-1.846 1.943-3.763 2.327l.787 3.934Zm6.393-4.158c1.327-2.157 1.86-5.11 1.86-8.59h-4.012c0 3.185-.509 5.258-1.265 6.487l3.417 2.103Zm1.86-8.59V5.741h-4.012v37.656h4.012Zm0-37.657c0-.158.03-.284.085-.402l-3.635-1.696a4.92 4.92 0 0 0-.462 2.098h4.012Zm.037-.306a1.08 1.08 0 0 1-.227.29.942.942 0 0 1-.245.162c-.114.05-.133.024.031.024V1.9c-.989 0-2.378.297-3.098 1.648l3.539 1.888Zm-.441.476h4.062V1.9h-4.062v4.012Zm4.062 0c.16 0 .32.009.482.027l.443-3.987a8.38 8.38 0 0 0-.925-.052v4.012Zm.482.027a.752.752 0 0 1-.32-.127l2.332-3.265a3.31 3.31 0 0 0-1.569-.595l-.443 3.987Zm-.149-.018c-.325-.186-.43-.43-.438-.45l3.725-1.49c-.216-.54-.607-1.149-1.297-1.543l-1.99 3.483Zm-.408-.38a.66.66 0 0 1-.034-.091c-.003-.012-.002-.01.001.011.007.044.016.134.016.281h4.012c0-.548-.057-1.217-.329-1.83l-3.666 1.63Zm-.017.201v34.063h4.012V5.742h-4.012Zm-13.527 3.946c0-.641-.042-1.268-.169-1.819l-3.909.902c.03.127.066.411.066.916h4.012Zm-.169-1.819c-.165-.714-.556-1.457-1.31-1.96l-2.226 3.338a1.004 1.004 0 0 1-.29-.295c-.062-.099-.08-.17-.083-.18l3.909-.903Zm-1.191-1.874c-.637-.496-1.371-.686-2.036-.73l-.267 4.002c.117.008.008.025-.16-.106l2.463-3.166Zm-1.904-.718a13.907 13.907 0 0 0-1.789-.095v4.011c.581 0 .991.025 1.259.06l.53-3.976Zm-3.795 1.91V54.61h4.012V7.187h-4.012Zm2.006 49.428h3.047v-4.012h-3.047v4.012Zm5.053-2.006V9.687h-4.012V54.61h4.012Zm23.853-49.297 1.419 1.419.02-.02.02-.021-1.459-1.378Zm25.743-.742-.989 1.745.012.007.012.007.965-1.759Zm1.679 1.68-1.821.84.02.043.022.042 1.779-.925Zm.547 2.11-2.005.069.001.002 2.004-.072Zm-.898 49.374 1.669 1.113.01-.016.01-.015-1.689-1.082Zm-27.071.899-1.418 1.418 1.418-1.418ZM414 7.578l-1.231 1.583.057.045.061.041L414 7.578Zm-.938-.312-.265 1.988.066.009.066.004.133-2.001Zm-1.523-.079V5.183h-2.006v2.005h2.006Zm0 49.532h-2.006v2.006h2.006v-2.006Zm1.523-.04.134 2.002.066-.004.066-.009-.266-1.988Zm.938-.312 1.113 1.67.061-.041.057-.046L414 56.367Zm.469-.742 1.946.486.004-.017.004-.018-1.954-.451Zm-23.697-46.25c0-.804.069-1.44.183-1.932l-3.91-.902c-.199.863-.285 1.815-.285 2.834h4.012Zm.183-1.932c.081-.352.214-.564.362-.712l-2.837-2.837c-.737.737-1.203 1.645-1.435 2.647l3.91.902Zm.402-.753c.145-.154.421-.351.954-.51l-1.153-3.843c-1.03.309-1.978.815-2.718 1.598l2.917 2.755Zm.954-.51c.523-.158 1.323-.268 2.47-.268V1.9c-1.353 0-2.583.125-3.623.437l1.153 3.842Zm2.47-.268h17.422V1.9h-17.422v4.012Zm17.422 0c1.372 0 2.11.211 2.449.403l1.978-3.49c-1.224-.693-2.778-.925-4.427-.925v4.012Zm2.473.417c.521.286.729.558.823.762l3.643-1.682c-.532-1.15-1.443-1.998-2.537-2.597l-1.929 3.517Zm.865.846c.196.378.305.788.321 1.253l4.01-.138a6.877 6.877 0 0 0-.772-2.965l-3.559 1.85Zm.322 1.256c.025.71.037 1.362.037 1.96h4.012c0-.653-.013-1.354-.04-2.103l-4.009.143Zm.037 1.96v43.28h4.012v-43.28H415.9Zm0 43.28c0 .486-.042 1.054-.136 1.71l3.972.567c.114-.803.176-1.564.176-2.276H415.9Zm-.136 1.71a3.145 3.145 0 0 1-.485 1.272l3.379 2.163c.564-.88.931-1.841 1.078-2.868l-3.972-.568Zm-.464 1.24c-.181.272-.523.601-1.164.932l1.837 3.566c1.078-.555 2.012-1.293 2.665-2.272l-3.338-2.225Zm-1.164.932c-.459.236-1.283.441-2.636.441v4.012c1.668 0 3.214-.238 4.473-.887l-1.837-3.566Zm-2.636.441h-16.719v4.012H411.5v-4.012Zm-16.719 0c-1.147 0-1.947-.11-2.47-.267l-1.153 3.843c1.04.312 2.27.436 3.623.436v-4.012Zm-2.47-.267c-.557-.167-.847-.365-.994-.513l-2.837 2.837c.738.738 1.672 1.217 2.678 1.519l1.153-3.843Zm-.994-.513c-.148-.148-.281-.36-.362-.712l-3.91.902c.232 1.002.698 1.91 1.435 2.647l2.837-2.837Zm-.362-.712c-.114-.492-.183-1.128-.183-1.932h-4.012c0 1.02.086 1.972.285 2.834l3.91-.902Zm-.183-1.932V9.375h-4.012V54.57h4.012Zm25.82-44.883c0-.64-.042-1.267-.169-1.818l-3.909.902c.029.127.066.411.066.916h4.012Zm-.169-1.818c-.165-.714-.556-1.457-1.31-1.96l-2.226 3.338a1.004 1.004 0 0 1-.29-.295c-.062-.099-.08-.17-.083-.18l3.909-.903Zm-1.192-1.874c-.636-.496-1.37-.686-2.035-.73l-.267 4.002c.117.008.008.025-.16-.106l2.462-3.166Zm-1.903-.718a13.907 13.907 0 0 0-1.789-.095v4.011c.581 0 .991.025 1.258.06l.531-3.976Zm-3.795 1.91V56.72h4.012V7.187h-4.012Zm2.006 51.538c.647 0 1.204-.014 1.657-.044l-.267-4.003c-.328.022-.787.035-1.39.035v4.012Zm1.789-.057c.58-.077 1.215-.252 1.785-.632l-2.226-3.338c.054-.036.083-.043.069-.038a.934.934 0 0 1-.159.031l.531 3.977Zm1.903-.718a3.312 3.312 0 0 0 1.184-1.839l-3.892-.972a.56.56 0 0 1 .074-.165.747.747 0 0 1 .172-.19l2.462 3.166Zm1.192-1.874c.128-.555.169-1.199.169-1.857h-4.012c0 .54-.038.833-.066.955l3.909.902Zm.169-1.857V9.687h-4.012V54.22h4.012Zm9.596-49.688 1.566 1.253.019-.024.019-.025-1.604-1.204Zm44.023-.156-1.032 1.72.018.011.019.01.995-1.741Zm.508 3.594 1.91.611.004-.01.003-.011-1.917-.59Zm-.664 1.875-1.868-.731-.005.012 1.873.719Zm-16.953 44.14-1.873-.719-1.249 3.252 3.439-.552-.317-1.98Zm7.5-1.172.299 1.984.011-.002.011-.002-.321-1.98Zm2.851-.43.276 1.988.027-.004.027-.005-.33-1.978Zm2.578-.39.265 1.989.028-.004.027-.005-.32-1.98Zm2.031-.273.191 1.997.04-.004.041-.006-.272-1.987Zm2.305.156-.951 1.766.055.03.056.025.84-1.821Zm.039 7.54 1.567 1.252.019-.024.019-.025-1.605-1.204Zm-46.054-.118-1.535 1.292.037.044.039.041 1.459-1.377Zm-.235-3.945 1.897.654.003-.01.003-.01-1.903-.634Zm1.055-2.891 1.871.723v-.001l-1.871-.722Zm16.406-42.54 1.872.723 1.313-3.405-3.578.716.393 1.967Zm-6.445 1.212-.343-1.977-.013.003-.014.002.37 1.972Zm-4.805.82.294 1.984.036-.005.035-.007-.365-1.972Zm-1.836.274.2 1.995.049-.004.049-.008-.298-1.983Zm38.164-3.008 1.872.72.005-.013.005-.014-1.882-.693Zm0-1.797-1.418 1.418.054.055.059.05 1.305-1.523Zm-2.539-.234V5.181h-1.378l-.494 1.286 1.872.72ZM445.68 55.156l-1.873-.72-1.23 3.2 3.393-.495-.29-1.985Zm3.476-.508.29 1.985 1.161-.17.421-1.093-1.872-.722ZM427.725 5.86c0-.017.001-.027.002-.031v-.004h.001v-.001l.003-.006c.003-.005.009-.016.023-.033l-3.133-2.506a4.078 4.078 0 0 0-.908 2.581h4.012Zm.067-.124a.802.802 0 0 1-.182.177c-.053.036-.085.047-.08.045.007-.002.044-.014.123-.025.078-.011.187-.02.331-.02V1.9c-1.082 0-2.509.238-3.401 1.428l3.209 2.407Zm.192.177h39.961V1.9h-39.961v4.012Zm39.961 0c.832 0 1.163.14 1.234.183l2.064-3.44c-.971-.583-2.15-.755-3.298-.755v4.012Zm1.271.205a.555.555 0 0 1-.215-.225c-.009-.02-.002-.014.006.033.009.047.018.127.018.247h4.012c0-1.279-.419-2.732-1.831-3.539l-1.99 3.484Zm-.191.055c0 .263-.054.657-.223 1.207l3.834 1.18c.247-.805.401-1.609.401-2.387h-4.012Zm-.217 1.185a29.305 29.305 0 0 1-.621 1.756l3.736 1.462c.25-.641.486-1.306.706-1.995l-3.821-1.223Zm-.626 1.768-16.953 44.14 3.745 1.439 16.953-44.141-3.745-1.438Zm-14.763 46.84c2.756-.442 5.25-.832 7.482-1.17l-.599-3.966c-2.247.34-4.753.731-7.518 1.175l.635 3.961Zm7.504-1.173a124.91 124.91 0 0 1 2.806-.422l-.552-3.974c-.953.132-1.918.278-2.897.437l.643 3.96Zm2.86-.43c.92-.154 1.758-.28 2.513-.382l-.53-3.976a82.68 82.68 0 0 0-2.643.4l.66 3.957Zm2.568-.39c.783-.126 1.413-.21 1.902-.256l-.381-3.994a34.49 34.49 0 0 0-2.16.29l.639 3.96Zm1.983-.266c.274-.037.489-.063.648-.08.177-.018.231-.018.213-.018v-4.012c-.343 0-.859.061-1.404.135l.543 3.975Zm.861-.099c.162 0 .216.032.221.034l1.902-3.532a4.434 4.434 0 0 0-2.123-.513v4.012Zm.332.09a1.228 1.228 0 0 1-.573-.554c-.097-.194-.085-.312-.085-.252h4.012c0-.941-.346-2.224-1.673-2.837l-1.681 3.642Zm-.658-.806v5.195h4.012V52.89h-4.012Zm0 5.195c0 .007 0 .009-.003.016a.414.414 0 0 1-.064.109l3.209 2.407c.542-.724.87-1.581.87-2.532h-4.012Zm-.029.075c.144-.18.285-.222.261-.215a.872.872 0 0 1-.143.029 2.7 2.7 0 0 1-.349.02v4.01c1.048 0 2.459-.207 3.364-1.338l-3.133-2.506Zm-.231-.167H426.93v4.012h41.679v-4.012Zm-41.679 0c-.53 0-.873-.05-1.074-.105-.204-.056-.157-.087-.046.03l-2.917 2.755c1.057 1.119 2.684 1.332 4.037 1.332v-4.012Zm-1.044.01c-.124-.146-.154-.252-.154-.387h-4.011c0 1.116.387 2.13 1.096 2.972l3.069-2.584Zm-.154-.387c0-.52.089-1.054.282-1.611l-3.793-1.308a8.91 8.91 0 0 0-.5 2.92h4.011Zm.288-1.631c.247-.741.587-1.673 1.023-2.802l-3.742-1.446a69.889 69.889 0 0 0-1.087 2.98l3.806 1.268Zm1.023-2.803 16.407-42.54-3.743-1.443L423.3 51.74l3.743 1.443Zm14.142-45.228c-2.33.466-4.462.866-6.395 1.201l.685 3.953c1.974-.342 4.139-.749 6.497-1.22l-.787-3.934Zm-6.422 1.206a81.4 81.4 0 0 1-2.44.42l.619 3.963c.854-.133 1.707-.28 2.56-.44l-.739-3.943Zm-2.44.42c-.849.132-1.636.266-2.36.4l.73 3.944a82.119 82.119 0 0 1 2.249-.38l-.619-3.964Zm-2.289.388-1.839.274.595 3.967 1.832-.273-.588-3.968Zm-1.741.262c-.524.052-.798.068-.895.068v4.012c.321 0 .776-.037 1.294-.088l-.399-3.992Zm-.895.068c-.206 0-.301-.036-.331-.05l-1.681 3.643a4.768 4.768 0 0 0 2.012.419v-4.012Zm-.331-.05c.251.116.457.322.573.553.097.194.085.312.085.253h-4.012c0 .94.345 2.224 1.673 2.837l1.681-3.643Zm.658.806V5.859h-4.012v5.196h4.012Zm40.813-1.143c.198-.537.398-1.193.398-1.826h-4.012c0-.085.012-.094-.013.008a4 4 0 0 1-.137.431l3.764 1.387Zm.398-1.826c0-.748-.261-1.576-.974-2.187l-2.611 3.046a1.259 1.259 0 0 1-.344-.476 1.022 1.022 0 0 1-.083-.383h4.012Zm-.861-2.083c-.767-.766-1.805-.821-2.317-.821v4.011c.117 0 .12.012.05-.006a1.294 1.294 0 0 1-.57-.347l2.837-2.837Zm-2.317-.821h-1.641v4.011h1.641V5.182Zm-3.513 1.286-18.438 47.969 3.745 1.439L465.99 7.907l-3.745-1.44ZM445.97 57.14l3.476-.508-.58-3.97-3.476.508.58 3.97Zm5.058-1.771 17.5-45.43-3.744-1.442-17.5 45.43 3.744 1.442Z" fill="#0085A3"/></g><defs><linearGradient id="b" x1="250" y1="-23" x2="250" y2="102" gradientUnits="userSpaceOnUse"><stop offset=".141" stop-color="#fff"/><stop offset="1" stop-color="#87F1FF"/></linearGradient><filter id="a" x=".588" y=".064" width="472.449" height="67.574" filterUnits="userSpaceOnUse" color-interpolation-filters="sRGB"><feFlood flood-opacity="0" result="BackgroundImageFix"/><feColorMatrix in="SourceAlpha" values="0 0 0 0 0 0 0 0 0 0 0 0 0 0 0 0 0 0 127 0"/><feOffset dy="2"/><feColorMatrix values="0 0 0 0 0 0 0 0 0 0 0 0 0 0 0 0 0 0 0.8 0"/><feBlend in2="BackgroundImageFix" result="effect1_dropShadow"/><feBlend in="SourceGraphic" in2="effect1_dropShadow" result="shape"/></filter></defs></svg>